<svg width="168" height="250" viewBox="0 0 168 250" fill="none" xmlns="http://www.w3.org/2000/svg">
<mask id="path-1-inside-1_19_27" fill="white">
<path fill-rule="evenodd" clip-rule="evenodd" d="M164.753 0.0774707C163.437 0.199115 160.284 0.766904 157.746 1.33877C152.683 2.48012 151.448 2.44954 148.882 1.11995C147.16 0.227998 145.766 0.187903 144.755 1.00136C144.057 1.56371 143.97 2.03398 143.705 6.69284C143.36 12.7683 143.043 14.1305 140.581 20.0965C139.54 22.6195 138.192 26.595 137.586 28.931C136.98 31.2671 136.359 33.4078 136.206 33.6881C136.053 33.9684 135.229 34.5736 134.374 35.033C132.886 35.8332 132.73 35.8498 130.671 35.4302C128.029 34.8916 125.537 33.5111 122.47 30.8872C119.376 28.2392 116.062 26.7537 112.025 26.2053C109.253 25.8288 108.561 25.8502 105.956 26.3935L103.016 27.0068L100.388 29.8923C96.8619 33.7618 94.7687 35.3871 93.3109 35.3871C91.9457 35.3871 90.3327 36.6235 89.376 38.403C88.2152 40.5624 87.2254 41.4411 84.5993 42.6433C82.7043 43.5107 81.1891 43.9181 78.7886 44.2053C72.8155 44.9202 71.1164 45.4537 68.8564 47.3232C67.7404 48.2464 65.1392 51.1744 63.0754 53.8298C59.456 58.4876 59.1627 58.7704 54.7856 61.8234L50.2477 64.9885L47.6842 64.8084C46.2742 64.7092 43.6502 64.5352 41.8526 64.4217L38.5846 64.2155L38.1871 67.7252C37.9492 69.823 37.875 73.0412 38.0025 75.7252C38.3474 82.9861 38.4725 82.8237 27.5176 89.3276C19.8444 93.8835 15.8135 95.6423 11.6937 96.2325C10.0404 96.4693 8.60788 96.7915 8.51047 96.9481C8.41305 97.1051 8.62566 97.6528 8.98319 98.1656C9.34071 98.6783 10.9192 101.524 12.4911 104.489C15.673 110.492 16.2613 111.09 19.7002 111.808C21.2745 112.137 22.0029 112.551 23.7089 114.085C25.5143 115.71 26.0902 116.561 28.0095 120.441L30.2254 124.922L30.0234 127.493C29.8255 130.006 29.8501 130.114 31.1104 132.292C32.2879 134.328 32.6034 134.619 34.7588 135.655C36.5755 136.529 37.4478 137.215 38.5518 138.637C39.878 140.346 39.9942 140.665 40.1043 142.897L40.2229 145.309L36.5816 152.784L32.9404 160.26L32.8276 164.337C32.7654 166.58 32.5999 168.697 32.4598 169.042C32.3197 169.386 31.1562 170.533 29.874 171.59C28.4101 172.797 24.1081 177.603 18.3063 184.512C13.226 190.562 8.00357 196.449 6.70061 197.594C3.43601 200.463 0.314641 204.255 0.0459816 205.679C-0.127998 206.601 0.160144 207.632 1.45662 210.731C3.3468 215.251 5.60751 219.424 6.73444 220.473C7.55034 221.233 9.08368 221.932 9.9358 221.932C10.63 221.932 13.0305 219.698 14.5878 217.604C15.9338 215.794 16.9719 215.243 18.3743 215.595C18.7971 215.701 21.2496 217.821 23.8241 220.305L28.5048 224.823L30.2329 228.886C31.8186 232.614 31.9621 233.174 31.9731 235.68C31.9871 238.885 32.5654 241.819 33.65 244.188C34.5527 246.16 35.4171 249.119 35.1946 249.477C35.1102 249.612 35.3071 249.825 35.6318 249.948C36.2173 250.172 36.4152 249.984 43.2588 242.737C45.1596 240.724 45.2939 240.056 44.437 236.882C43.615 233.838 43.7637 232.787 45.4785 229.528C47.231 226.197 53.0987 217.928 55.6414 215.206C57.5087 213.207 57.5036 213.244 56.5845 208.34C55.9487 204.947 56.282 203.239 58.0799 200.683C60.4038 197.378 60.5453 196.607 59.6413 192.18C58.7324 187.726 58.8537 184.512 60.0012 182.667C61.0222 181.024 61.7109 180.746 64.0923 181.014C66.4507 181.279 67.3353 180.877 68.4954 179.011C68.8926 178.372 69.8329 177.445 70.5849 176.95C71.9053 176.081 71.9524 175.986 71.9524 174.18C71.9524 172.982 71.6534 171.577 71.1219 170.276L70.2913 168.244L71.6144 168.455C72.6644 168.622 73.268 168.481 74.5389 167.775C76.4581 166.709 77.218 166.673 79.1786 167.558C79.9979 167.927 81.0171 168.233 81.4434 168.237C82.4045 168.246 89.24 164.87 90.6537 163.688C91.2484 163.19 92.0175 161.978 92.4492 160.859C92.8648 159.782 93.3417 158.556 93.5088 158.136C93.7775 157.462 94.0557 157.372 95.8584 157.372C98.036 157.372 98.8071 156.905 99.7929 154.993C100.994 152.663 102.499 140.449 102.178 135.639L101.962 132.397L104.094 128.32C105.267 126.077 106.471 123.783 106.771 123.223C107.613 121.645 107.695 117.47 106.923 115.408C106.355 113.891 106.167 113.697 105.164 113.601C103.484 113.439 103.954 112.845 106.917 111.388C108.989 110.369 109.876 109.689 111.009 108.246C112.9 105.84 116.634 103.946 120.66 103.35C122.164 103.127 124.574 102.487 126.016 101.928L128.638 100.912L129.669 98.3059C130.307 96.6939 130.787 94.7276 130.926 93.1513C131.228 89.735 131.973 86.2519 132.799 84.3949C133.89 81.9437 133.696 81.1581 131.378 78.6328C129.593 76.6885 129.532 75.5594 131.078 73.1037C132.465 70.9015 132.586 69.8703 131.769 67.2376C131.065 64.9735 131.065 64.9603 131.732 63.6606C132.517 62.1302 133.544 61.7194 137.834 61.2192C139.383 61.0388 141.075 60.6708 141.593 60.4017C143.944 59.1812 145.516 57.7197 146.317 56.0089C147.214 54.0938 147.341 52.9212 146.804 51.5165C146.53 50.8006 146.634 50.1281 147.301 48.2889C147.765 47.0113 148.692 42.91 149.363 39.175C150.702 31.7122 152.798 24.1271 154.389 20.9959C154.952 19.8858 158.246 14.9613 161.707 10.0527C165.168 5.14374 168 0.979952 168 0.799863C168 0.0808684 167.035 -0.133878 164.753 0.0774707Z"/>
</mask>
<path fill-rule="evenodd" clip-rule="evenodd" d="M164.753 0.0774707C163.437 0.199115 160.284 0.766904 157.746 1.33877C152.683 2.48012 151.448 2.44954 148.882 1.11995C147.16 0.227998 145.766 0.187903 144.755 1.00136C144.057 1.56371 143.97 2.03398 143.705 6.69284C143.36 12.7683 143.043 14.1305 140.581 20.0965C139.54 22.6195 138.192 26.595 137.586 28.931C136.98 31.2671 136.359 33.4078 136.206 33.6881C136.053 33.9684 135.229 34.5736 134.374 35.033C132.886 35.8332 132.73 35.8498 130.671 35.4302C128.029 34.8916 125.537 33.5111 122.47 30.8872C119.376 28.2392 116.062 26.7537 112.025 26.2053C109.253 25.8288 108.561 25.8502 105.956 26.3935L103.016 27.0068L100.388 29.8923C96.8619 33.7618 94.7687 35.3871 93.3109 35.3871C91.9457 35.3871 90.3327 36.6235 89.376 38.403C88.2152 40.5624 87.2254 41.4411 84.5993 42.6433C82.7043 43.5107 81.1891 43.9181 78.7886 44.2053C72.8155 44.9202 71.1164 45.4537 68.8564 47.3232C67.7404 48.2464 65.1392 51.1744 63.0754 53.8298C59.456 58.4876 59.1627 58.7704 54.7856 61.8234L50.2477 64.9885L47.6842 64.8084C46.2742 64.7092 43.6502 64.5352 41.8526 64.4217L38.5846 64.2155L38.1871 67.7252C37.9492 69.823 37.875 73.0412 38.0025 75.7252C38.3474 82.9861 38.4725 82.8237 27.5176 89.3276C19.8444 93.8835 15.8135 95.6423 11.6937 96.2325C10.0404 96.4693 8.60788 96.7915 8.51047 96.9481C8.41305 97.1051 8.62566 97.6528 8.98319 98.1656C9.34071 98.6783 10.9192 101.524 12.4911 104.489C15.673 110.492 16.2613 111.09 19.7002 111.808C21.2745 112.137 22.0029 112.551 23.7089 114.085C25.5143 115.71 26.0902 116.561 28.0095 120.441L30.2254 124.922L30.0234 127.493C29.8255 130.006 29.8501 130.114 31.1104 132.292C32.2879 134.328 32.6034 134.619 34.7588 135.655C36.5755 136.529 37.4478 137.215 38.5518 138.637C39.878 140.346 39.9942 140.665 40.1043 142.897L40.2229 145.309L36.5816 152.784L32.9404 160.26L32.8276 164.337C32.7654 166.58 32.5999 168.697 32.4598 169.042C32.3197 169.386 31.1562 170.533 29.874 171.59C28.4101 172.797 24.1081 177.603 18.3063 184.512C13.226 190.562 8.00357 196.449 6.70061 197.594C3.43601 200.463 0.314641 204.255 0.0459816 205.679C-0.127998 206.601 0.160144 207.632 1.45662 210.731C3.3468 215.251 5.60751 219.424 6.73444 220.473C7.55034 221.233 9.08368 221.932 9.9358 221.932C10.63 221.932 13.0305 219.698 14.5878 217.604C15.9338 215.794 16.9719 215.243 18.3743 215.595C18.7971 215.701 21.2496 217.821 23.8241 220.305L28.5048 224.823L30.2329 228.886C31.8186 232.614 31.9621 233.174 31.9731 235.68C31.9871 238.885 32.5654 241.819 33.65 244.188C34.5527 246.16 35.4171 249.119 35.1946 249.477C35.1102 249.612 35.3071 249.825 35.6318 249.948C36.2173 250.172 36.4152 249.984 43.2588 242.737C45.1596 240.724 45.2939 240.056 44.437 236.882C43.615 233.838 43.7637 232.787 45.4785 229.528C47.231 226.197 53.0987 217.928 55.6414 215.206C57.5087 213.207 57.5036 213.244 56.5845 208.34C55.9487 204.947 56.282 203.239 58.0799 200.683C60.4038 197.378 60.5453 196.607 59.6413 192.18C58.7324 187.726 58.8537 184.512 60.0012 182.667C61.0222 181.024 61.7109 180.746 64.0923 181.014C66.4507 181.279 67.3353 180.877 68.4954 179.011C68.8926 178.372 69.8329 177.445 70.5849 176.95C71.9053 176.081 71.9524 175.986 71.9524 174.18C71.9524 172.982 71.6534 171.577 71.1219 170.276L70.2913 168.244L71.6144 168.455C72.6644 168.622 73.268 168.481 74.5389 167.775C76.4581 166.709 77.218 166.673 79.1786 167.558C79.9979 167.927 81.0171 168.233 81.4434 168.237C82.4045 168.246 89.24 164.87 90.6537 163.688C91.2484 163.19 92.0175 161.978 92.4492 160.859C92.8648 159.782 93.3417 158.556 93.5088 158.136C93.7775 157.462 94.0557 157.372 95.8584 157.372C98.036 157.372 98.8071 156.905 99.7929 154.993C100.994 152.663 102.499 140.449 102.178 135.639L101.962 132.397L104.094 128.32C105.267 126.077 106.471 123.783 106.771 123.223C107.613 121.645 107.695 117.47 106.923 115.408C106.355 113.891 106.167 113.697 105.164 113.601C103.484 113.439 103.954 112.845 106.917 111.388C108.989 110.369 109.876 109.689 111.009 108.246C112.9 105.84 116.634 103.946 120.66 103.35C122.164 103.127 124.574 102.487 126.016 101.928L128.638 100.912L129.669 98.3059C130.307 96.6939 130.787 94.7276 130.926 93.1513C131.228 89.735 131.973 86.2519 132.799 84.3949C133.89 81.9437 133.696 81.1581 131.378 78.6328C129.593 76.6885 129.532 75.5594 131.078 73.1037C132.465 70.9015 132.586 69.8703 131.769 67.2376C131.065 64.9735 131.065 64.9603 131.732 63.6606C132.517 62.1302 133.544 61.7194 137.834 61.2192C139.383 61.0388 141.075 60.6708 141.593 60.4017C143.944 59.1812 145.516 57.7197 146.317 56.0089C147.214 54.0938 147.341 52.9212 146.804 51.5165C146.53 50.8006 146.634 50.1281 147.301 48.2889C147.765 47.0113 148.692 42.91 149.363 39.175C150.702 31.7122 152.798 24.1271 154.389 20.9959C154.952 19.8858 158.246 14.9613 161.707 10.0527C165.168 5.14374 168 0.979952 168 0.799863C168 0.0808684 167.035 -0.133878 164.753 0.0774707Z" stroke="white" stroke-width="2" mask="url(#path-1-inside-1_19_27)"/>
</svg>
