<svg class="region" width="223" height="183" viewBox="0 0 223 183" fill="none" xmlns="http://www.w3.org/2000/svg">
<mask id="path-1-inside-1_18_12" fill="white">
<path fill-rule="evenodd" clip-rule="evenodd" d="M184.481 1.71408C182.4 3.14781 180.774 3.48076 175.843 3.48076C168.512 3.48076 165.669 4.90254 163.36 9.72068C162.486 11.5455 160.233 14.4257 158.354 16.1207C155.076 19.0782 154.615 19.2319 146.908 19.9575C138.615 20.7381 135.702 20.594 130.931 19.1666C128.576 18.4617 127.556 18.6234 124.322 20.2156C121.015 21.8445 120.057 21.9863 117.246 21.2678C115.424 20.8019 112.28 20.688 110.095 21.0089C104.396 21.8461 95.4363 21.4677 90.1596 20.1678C84.7866 18.8432 79.1014 18.6632 79.1014 19.8166C79.1014 20.8074 74.5954 25.2369 71.8689 26.9263C70.762 27.6121 68.801 28.865 67.5109 29.7109C64.6167 31.6098 56.5026 32.7297 53.4114 31.6568C48.4874 29.9483 44.7193 26.8227 43.8094 23.6932C42.8091 20.2538 40.5866 19.2566 35.869 20.1304C34.3595 20.41 31.0835 20.2156 28.5883 19.6987C24.9785 18.9507 23.3512 18.973 20.6162 19.8094C17.8819 20.6449 16.4765 20.6641 13.7389 19.905C11.0459 19.1578 9.17438 19.165 5.13539 19.9368C-1.52343 21.2113 -1.67222 22.6227 4.4886 26.0891C8.01842 28.0757 8.2601 28.783 6.42381 31.7572C4.69933 34.5506 4.7733 34.7035 8.11905 35.2842C12.306 36.0122 16.3148 39.3217 16.3148 42.0522C16.3148 44.7643 22.0499 51.8334 23.9834 51.5037C24.7326 51.3762 26.5069 49.1253 27.9261 46.5007L30.5063 41.7296L36.6921 40.2616C41.8673 39.0334 43.6236 38.9378 47.4432 39.6778C54.2147 40.988 54.4263 41.2087 52.8635 45.3115C51.6259 48.5597 51.6396 48.8489 53.0622 49.5681C55.4335 50.7669 60.1795 55.64 60.1795 56.8762C60.1795 57.4871 58.9435 59.2904 57.4323 60.8843C55.2133 63.2244 54.6766 64.4917 54.637 67.4826C54.6009 70.2625 54.9105 71.1848 55.879 71.1848C56.5886 71.1848 57.2896 70.4043 57.4358 69.4508C57.8779 66.573 59.7296 65.708 63.533 66.6017C66.6852 67.3432 66.9492 67.2652 67.9125 65.3073L68.9369 63.2252L70.5788 65.1026C71.4819 66.1357 72.2207 68.0306 72.2207 69.3138C72.2207 70.5978 73.0129 72.6401 73.9822 73.8532C75.4332 75.6716 75.5845 76.4451 74.8423 78.254C73.1582 82.3544 73.5487 82.9359 77.5662 82.3074C81.0917 81.7554 81.2878 81.8431 84.6826 85.4672C88.6579 89.7111 90.1011 89.7143 92.278 85.4871C93.4976 83.1183 94.1169 82.7344 96.7195 82.7344C99.6129 82.7344 99.7436 82.857 99.7436 85.5748C99.7436 87.1367 100.148 89.1145 100.642 89.9707C101.325 91.152 101.175 92.1014 100.017 93.9167C98.7648 95.8793 98.6814 96.5882 99.5475 97.8738C101.287 100.453 100.796 101.357 96.5157 103.444C92.659 105.325 92.4277 105.622 92.34 108.82C92.2385 112.524 93.1459 112.975 97.5684 111.418C100.285 110.461 100.945 111.502 99.8374 114.993C99.1278 117.229 99.4185 117.676 104.357 121.952C107.26 124.465 110.264 126.526 111.035 126.532C112.919 126.547 114.676 128.628 114.058 130.117C113.742 130.882 112.435 131.322 110.477 131.322C107.849 131.322 107.267 131.663 106.525 133.633C105.865 135.386 104.949 136.065 102.725 136.452C99.0951 137.082 97.1633 139.512 97.1633 143.447C97.1633 146.735 97.6975 147.056 100.224 145.287C102.381 143.776 105.849 143.753 107.965 145.236C108.883 145.879 110.639 146.417 111.867 146.43C113.094 146.445 114.831 147.206 115.728 148.123C118.657 151.121 119.886 151.299 123.214 149.204C128.4 145.941 130.426 146.61 132.381 152.231C133.519 155.5 134.509 155.882 136.821 153.944C139.186 151.963 150.935 151.618 154.725 153.419C157.831 154.895 158.303 155.506 159.833 160.023C160.621 162.35 160.502 163.531 159.145 166.838C157.647 170.49 157.617 171.055 158.803 173.323C160.832 177.204 162.899 178.616 165.013 177.568C165.984 177.087 169.7 176.763 173.268 176.848C179.528 176.998 179.835 177.097 181.939 179.652C183.174 181.151 184.893 182.299 185.904 182.299C187.45 182.299 187.615 181.961 187.14 179.763C186.839 178.368 186.036 176.657 185.354 175.96C183.805 174.375 185.112 168.746 187.492 166.751C188.934 165.542 189.217 165.55 191.374 166.859C193.672 168.253 193.723 168.244 195.389 166.125C196.409 164.829 197.892 163.979 199.134 163.979C200.514 163.979 201.583 163.259 202.384 161.789C204.399 158.092 202.453 156.391 198.695 158.565C197.448 159.286 196.55 159.301 195.052 158.622C193.958 158.126 190.354 157.303 187.043 156.792C183.731 156.28 179.769 155.366 178.238 154.76C176.707 154.156 174.328 153.869 172.952 154.124C171.059 154.474 170.062 154.172 168.855 152.88C164.635 148.361 161.014 145.059 159.904 144.716C158.89 144.403 158.863 143.966 159.745 142.174C161.213 139.19 161.058 137.628 159.06 135.305C157.488 133.475 157.276 133.426 156.456 134.707C154.887 137.158 151.834 136.425 150.172 133.196L148.676 130.291L151.303 127.782C153.339 125.836 153.927 124.565 153.916 122.124C153.898 117.64 151.797 111.732 150.361 112.127C149.722 112.303 147.553 112.973 145.54 113.616C142.546 114.574 141.413 114.606 139.304 113.797C136.255 112.628 136.205 112.296 138.448 108.223C139.394 106.506 140.168 104.399 140.168 103.541C140.168 100.173 141.068 99.4613 145.322 99.4613C148.663 99.4613 151.345 98.5524 159.637 94.6105C166.703 91.2515 171.946 89.3502 176.685 88.4311L183.528 87.1033L184.247 83.9236C184.642 82.1744 185.304 78.7717 185.717 76.3622C186.63 71.0455 190.942 59.4386 193.492 55.4369C195.676 52.0079 199.674 49.5291 203.617 49.1595C205.883 48.9468 206.821 49.3515 208.447 51.24L210.466 53.5842L213.227 51.432C214.745 50.2491 216.486 49.2806 217.096 49.2806C217.705 49.2806 219.224 48.5374 220.471 47.6294C222.199 46.3709 222.614 45.5218 222.218 44.0594C221.932 43.0032 222.097 41.0812 222.583 39.7869C223.239 38.0457 223.133 36.1245 222.179 32.4047C221.36 29.2171 221.079 25.749 221.409 22.9309L221.929 18.4856L217.289 18.6353C214.736 18.7182 212.21 19.0368 211.673 19.3434C211.137 19.6501 209.562 19.2797 208.172 18.519C206.02 17.3418 205.144 17.2757 202.265 18.0746C197.626 19.3617 194.342 19.2502 192.546 17.7448C191.104 16.5365 191.117 16.272 192.821 12.1477L194.61 7.8186L192.825 6.04794C191.844 5.07379 190.776 3.29118 190.454 2.08685C189.741 -0.571932 187.956 -0.683445 184.481 1.71408Z"/>
</mask>
<path fill-rule="evenodd" clip-rule="evenodd" d="M184.481 1.71408C182.4 3.14781 180.774 3.48076 175.843 3.48076C168.512 3.48076 165.669 4.90254 163.36 9.72068C162.486 11.5455 160.233 14.4257 158.354 16.1207C155.076 19.0782 154.615 19.2319 146.908 19.9575C138.615 20.7381 135.702 20.594 130.931 19.1666C128.576 18.4617 127.556 18.6234 124.322 20.2156C121.015 21.8445 120.057 21.9863 117.246 21.2678C115.424 20.8019 112.28 20.688 110.095 21.0089C104.396 21.8461 95.4363 21.4677 90.1596 20.1678C84.7866 18.8432 79.1014 18.6632 79.1014 19.8166C79.1014 20.8074 74.5954 25.2369 71.8689 26.9263C70.762 27.6121 68.801 28.865 67.5109 29.7109C64.6167 31.6098 56.5026 32.7297 53.4114 31.6568C48.4874 29.9483 44.7193 26.8227 43.8094 23.6932C42.8091 20.2538 40.5866 19.2566 35.869 20.1304C34.3595 20.41 31.0835 20.2156 28.5883 19.6987C24.9785 18.9507 23.3512 18.973 20.6162 19.8094C17.8819 20.6449 16.4765 20.6641 13.7389 19.905C11.0459 19.1578 9.17438 19.165 5.13539 19.9368C-1.52343 21.2113 -1.67222 22.6227 4.4886 26.0891C8.01842 28.0757 8.2601 28.783 6.42381 31.7572C4.69933 34.5506 4.7733 34.7035 8.11905 35.2842C12.306 36.0122 16.3148 39.3217 16.3148 42.0522C16.3148 44.7643 22.0499 51.8334 23.9834 51.5037C24.7326 51.3762 26.5069 49.1253 27.9261 46.5007L30.5063 41.7296L36.6921 40.2616C41.8673 39.0334 43.6236 38.9378 47.4432 39.6778C54.2147 40.988 54.4263 41.2087 52.8635 45.3115C51.6259 48.5597 51.6396 48.8489 53.0622 49.5681C55.4335 50.7669 60.1795 55.64 60.1795 56.8762C60.1795 57.4871 58.9435 59.2904 57.4323 60.8843C55.2133 63.2244 54.6766 64.4917 54.637 67.4826C54.6009 70.2625 54.9105 71.1848 55.879 71.1848C56.5886 71.1848 57.2896 70.4043 57.4358 69.4508C57.8779 66.573 59.7296 65.708 63.533 66.6017C66.6852 67.3432 66.9492 67.2652 67.9125 65.3073L68.9369 63.2252L70.5788 65.1026C71.4819 66.1357 72.2207 68.0306 72.2207 69.3138C72.2207 70.5978 73.0129 72.6401 73.9822 73.8532C75.4332 75.6716 75.5845 76.4451 74.8423 78.254C73.1582 82.3544 73.5487 82.9359 77.5662 82.3074C81.0917 81.7554 81.2878 81.8431 84.6826 85.4672C88.6579 89.7111 90.1011 89.7143 92.278 85.4871C93.4976 83.1183 94.1169 82.7344 96.7195 82.7344C99.6129 82.7344 99.7436 82.857 99.7436 85.5748C99.7436 87.1367 100.148 89.1145 100.642 89.9707C101.325 91.152 101.175 92.1014 100.017 93.9167C98.7648 95.8793 98.6814 96.5882 99.5475 97.8738C101.287 100.453 100.796 101.357 96.5157 103.444C92.659 105.325 92.4277 105.622 92.34 108.82C92.2385 112.524 93.1459 112.975 97.5684 111.418C100.285 110.461 100.945 111.502 99.8374 114.993C99.1278 117.229 99.4185 117.676 104.357 121.952C107.26 124.465 110.264 126.526 111.035 126.532C112.919 126.547 114.676 128.628 114.058 130.117C113.742 130.882 112.435 131.322 110.477 131.322C107.849 131.322 107.267 131.663 106.525 133.633C105.865 135.386 104.949 136.065 102.725 136.452C99.0951 137.082 97.1633 139.512 97.1633 143.447C97.1633 146.735 97.6975 147.056 100.224 145.287C102.381 143.776 105.849 143.753 107.965 145.236C108.883 145.879 110.639 146.417 111.867 146.43C113.094 146.445 114.831 147.206 115.728 148.123C118.657 151.121 119.886 151.299 123.214 149.204C128.4 145.941 130.426 146.61 132.381 152.231C133.519 155.5 134.509 155.882 136.821 153.944C139.186 151.963 150.935 151.618 154.725 153.419C157.831 154.895 158.303 155.506 159.833 160.023C160.621 162.35 160.502 163.531 159.145 166.838C157.647 170.49 157.617 171.055 158.803 173.323C160.832 177.204 162.899 178.616 165.013 177.568C165.984 177.087 169.7 176.763 173.268 176.848C179.528 176.998 179.835 177.097 181.939 179.652C183.174 181.151 184.893 182.299 185.904 182.299C187.45 182.299 187.615 181.961 187.14 179.763C186.839 178.368 186.036 176.657 185.354 175.96C183.805 174.375 185.112 168.746 187.492 166.751C188.934 165.542 189.217 165.55 191.374 166.859C193.672 168.253 193.723 168.244 195.389 166.125C196.409 164.829 197.892 163.979 199.134 163.979C200.514 163.979 201.583 163.259 202.384 161.789C204.399 158.092 202.453 156.391 198.695 158.565C197.448 159.286 196.55 159.301 195.052 158.622C193.958 158.126 190.354 157.303 187.043 156.792C183.731 156.28 179.769 155.366 178.238 154.76C176.707 154.156 174.328 153.869 172.952 154.124C171.059 154.474 170.062 154.172 168.855 152.88C164.635 148.361 161.014 145.059 159.904 144.716C158.89 144.403 158.863 143.966 159.745 142.174C161.213 139.19 161.058 137.628 159.06 135.305C157.488 133.475 157.276 133.426 156.456 134.707C154.887 137.158 151.834 136.425 150.172 133.196L148.676 130.291L151.303 127.782C153.339 125.836 153.927 124.565 153.916 122.124C153.898 117.64 151.797 111.732 150.361 112.127C149.722 112.303 147.553 112.973 145.54 113.616C142.546 114.574 141.413 114.606 139.304 113.797C136.255 112.628 136.205 112.296 138.448 108.223C139.394 106.506 140.168 104.399 140.168 103.541C140.168 100.173 141.068 99.4613 145.322 99.4613C148.663 99.4613 151.345 98.5524 159.637 94.6105C166.703 91.2515 171.946 89.3502 176.685 88.4311L183.528 87.1033L184.247 83.9236C184.642 82.1744 185.304 78.7717 185.717 76.3622C186.63 71.0455 190.942 59.4386 193.492 55.4369C195.676 52.0079 199.674 49.5291 203.617 49.1595C205.883 48.9468 206.821 49.3515 208.447 51.24L210.466 53.5842L213.227 51.432C214.745 50.2491 216.486 49.2806 217.096 49.2806C217.705 49.2806 219.224 48.5374 220.471 47.6294C222.199 46.3709 222.614 45.5218 222.218 44.0594C221.932 43.0032 222.097 41.0812 222.583 39.7869C223.239 38.0457 223.133 36.1245 222.179 32.4047C221.36 29.2171 221.079 25.749 221.409 22.9309L221.929 18.4856L217.289 18.6353C214.736 18.7182 212.21 19.0368 211.673 19.3434C211.137 19.6501 209.562 19.2797 208.172 18.519C206.02 17.3418 205.144 17.2757 202.265 18.0746C197.626 19.3617 194.342 19.2502 192.546 17.7448C191.104 16.5365 191.117 16.272 192.821 12.1477L194.61 7.8186L192.825 6.04794C191.844 5.07379 190.776 3.29118 190.454 2.08685C189.741 -0.571932 187.956 -0.683445 184.481 1.71408Z" stroke="black" stroke-width="2" mask="url(#path-1-inside-1_18_12)"/>
</svg>
