<svg width="150" height="150" viewBox="0 0 150 150" fill="none" xmlns="http://www.w3.org/2000/svg">
<circle cx="74.5" cy="74.5" r="47.5" fill="#23A6D5"/>
<circle cx="74.5" cy="74.5" r="23.5" fill="#23D5AB"/>
<path fill-rule="evenodd" clip-rule="evenodd" d="M135.603 82C132.13 112.393 106.322 136 75 136C41.3106 136 14 108.689 14 75C14 41.3106 41.3106 14 75 14C106.322 14 132.13 37.6074 135.603 68H149.678C146.148 29.8607 114.061 0 75 0C33.5786 0 0 33.5786 0 75C0 116.421 33.5786 150 75 150C114.061 150 146.148 120.139 149.678 82H135.603Z" fill="#23D5AB"/>
</svg>
