<svg width="250" height="250" viewBox="0 0 250 250" fill="none" xmlns="http://www.w3.org/2000/svg">
<mask id="path-1-inside-1_20_31" fill="white">
<path fill-rule="evenodd" clip-rule="evenodd" d="M48.1677 1.32203C44.4307 3.50776 42.2073 6.10021 43.3309 6.96248C44.7639 8.06129 45.7418 16.5839 44.8452 20.1525C44.4225 21.8333 43.776 23.5422 43.4078 23.9495C43.0401 24.3569 41.9141 25.8318 40.905 27.2278C39.6089 29.0206 38.4628 29.8797 36.9973 30.1544C35.8568 30.369 34.924 30.7639 34.924 31.0323C34.924 31.3008 34.2137 31.6987 33.3453 31.9171C30.1747 32.7137 29.2969 34.3531 29.2969 39.478C29.2969 42.1893 29.033 44.1711 28.6716 44.1711C28.3278 44.1711 28.0464 45.1172 28.0464 46.2736C28.0464 48.9699 24.537 52.9315 22.1486 52.9315C21.2657 52.9315 20.5436 53.1905 20.5436 53.5078C20.5436 53.8244 19.6995 54.2693 18.6679 54.4958C16.5884 54.9526 16.3952 55.9119 17.3662 60.9397C18.2571 65.5502 19.2888 65.8118 31.1882 64.442C33.4722 64.1792 34.3112 64.3713 35.5442 65.4419C36.4921 66.2648 36.8222 66.9331 36.4133 67.2022C36.0506 67.4412 35.4385 68.56 35.0521 69.6889C34.3594 71.7163 32.9307 73.5716 31.9766 73.683C30.7512 73.8263 29.9221 74.4045 29.9221 75.1166C29.9221 75.5433 29.3594 76.542 28.6716 77.3355C27.1973 79.0368 27.0291 81.6043 28.359 82.1149C28.8748 82.3132 29.2969 82.8576 29.2969 83.3251C29.2969 83.7925 29.8833 84.4889 30.6005 84.8732C31.3176 85.2574 32.5987 86.1753 33.4465 86.9131C34.8396 88.1251 34.8896 88.3279 33.9655 89.0043C33.4028 89.416 32.7882 90.9009 32.6006 92.3045C32.4124 93.708 31.9172 94.8563 31.4996 94.8563C31.0825 94.8563 30.2316 95.4194 29.6095 96.1077C28.8086 96.9932 27.6838 97.3592 25.7612 97.3592C24.2669 97.3592 23.0445 97.6083 23.0445 97.9118C23.0445 98.2159 22.4831 98.6113 21.7972 98.7909C21.1113 98.9705 20.3598 99.6369 20.1278 100.272C19.8952 100.907 19.0455 102.271 18.2396 103.304C16.1032 106.04 16.0601 106.098 13.3428 110.096C11.9729 112.111 10.5261 114.331 10.1272 115.03C9.72894 115.729 9.16623 116.474 8.87674 116.685C7.42057 117.752 5.44046 121.458 4.96466 124.008C4.66955 125.587 4.11559 127.192 3.73295 127.574C2.01543 129.293 3.45784 132.494 6.74094 134.252C7.45496 134.635 8.03893 135.445 8.03893 136.052C8.03893 136.66 8.37906 137.497 8.79484 137.913C9.38631 138.505 9.22375 138.907 8.04893 139.759C6.01255 141.236 6.02943 141.218 4.52137 143.378C2.11046 146.83 0.456721 150.814 0.116594 153.989C-0.158508 156.564 0.0115552 157.38 1.0782 158.6C1.7916 159.415 2.5425 160.612 2.7482 161.26C2.95328 161.907 3.38344 162.437 3.70418 162.437C4.02493 162.437 4.28753 162.751 4.28753 163.136C4.28753 163.521 5.1416 164.858 6.18511 166.108C7.22863 167.359 8.35405 168.722 8.68605 169.137C9.01804 169.552 9.2894 171.19 9.2894 172.776C9.2894 177.975 12.1867 181.158 16.9485 181.189C18.5822 181.2 19.9184 180.935 19.9184 180.599C19.9184 180.264 20.8331 179.521 21.9504 178.949C23.0683 178.377 25.0096 177.101 26.2651 176.113C27.7363 174.956 29.6251 174.179 31.5796 173.925C33.2471 173.709 35.104 173.104 35.7055 172.58C36.6796 171.733 36.9197 171.732 37.8938 172.569C38.4953 173.087 39.4982 173.691 40.1215 173.913C40.7455 174.135 41.0806 174.6 40.8662 174.947C40.6524 175.294 40.8456 175.596 41.2957 175.62C41.7459 175.643 41.4808 175.968 40.7074 176.341C39.934 176.714 39.3006 177.224 39.3006 177.474C39.3006 177.724 38.3959 178.304 37.2899 178.762C36.1838 179.22 34.2525 180.592 32.9976 181.81C31.7428 183.028 29.3775 185.259 27.7419 186.767C26.1063 188.276 24.5614 190.247 24.3088 191.148C23.8286 192.86 25.0678 196.227 26.1776 196.227C26.5083 196.227 27.53 197.423 28.4491 198.886C29.3675 200.348 30.915 202.711 31.8866 204.137C33.4203 206.386 33.531 206.829 32.7257 207.498C32.2155 207.922 31.7978 208.939 31.7978 209.757C31.7978 210.575 31.4964 211.245 31.1276 211.245C30.7593 211.245 30.5092 211.878 30.5717 212.652C30.7655 215.049 30.5874 215.528 29.3531 215.919C28.5497 216.175 27.9164 217.314 27.4155 219.404C27.006 221.111 26.4608 222.508 26.2032 222.508C25.5398 222.508 24.2931 232.024 24.2944 237.076C24.295 240.571 24.4882 241.379 25.3892 241.658C25.9906 241.845 26.9716 242.258 27.5687 242.577C28.1658 242.896 29.0805 243.157 29.6007 243.157C30.1303 243.157 30.5473 243.709 30.5473 244.409C30.5473 245.097 30.7618 245.66 31.0244 245.66C31.2864 245.66 31.779 246.294 32.1186 247.068C32.9595 248.987 39.5763 249.83 43.4865 248.518C45.8737 247.716 46.3201 247.745 48.464 248.839C51.1819 250.226 53.3965 250.376 54.642 249.258C55.1209 248.829 55.9331 248.125 56.4464 247.694C56.9797 247.247 59.0936 246.912 61.3789 246.912C64.7776 246.912 65.6311 246.677 67.0641 245.348C69.1211 243.44 70.3428 243.373 71.734 245.092C72.3167 245.812 73.4871 246.386 74.3349 246.367C76.7665 246.314 80.7605 245.634 82.1291 245.04C82.8169 244.742 86.8965 244.188 91.195 243.809C95.4935 243.43 99.1042 242.847 99.2186 242.513C99.3337 242.179 99.8257 241.906 100.313 241.906C100.929 241.906 101.199 241.145 101.199 239.403V236.9H104.854C106.865 236.9 109.326 237.298 110.325 237.784C112.413 238.802 125.296 239.323 128.621 238.526C129.776 238.248 131.254 237.566 131.903 237.009C133.139 235.95 133.493 234.025 132.518 233.667C132.205 233.552 131.853 232.895 131.736 232.207C131.582 231.303 131.914 230.9 132.929 230.755C133.703 230.646 134.336 230.338 134.336 230.072C134.336 229.807 135.532 229.232 136.993 228.795C138.455 228.359 139.833 227.711 140.055 227.356C140.537 226.588 153.369 225.413 155.483 225.944C156.69 226.247 156.819 226.478 156.198 227.227C155.782 227.729 155.091 228.14 154.664 228.14C154.237 228.14 153.117 228.746 152.175 229.487C150.646 230.691 150.507 231.109 150.872 233.398C151.543 237.61 152.507 238.542 156.632 238.967C158.63 239.174 160.361 239.638 160.481 239.999C160.752 240.81 162.135 240.843 163.575 240.074C164.172 239.754 167.187 239.171 170.276 238.778C173.364 238.386 176.178 237.827 176.528 237.538C176.878 237.248 178.923 236.648 181.072 236.205C183.222 235.761 184.98 235.205 184.98 234.97C184.98 234.734 186.564 234.343 188.501 234.101C191.421 233.736 192.357 233.296 193.977 231.526C195.903 229.422 196.02 229.387 202.279 229.068C207.432 228.804 208.806 228.922 209.577 229.693C210.899 231.017 218.898 231.025 219.993 229.704C220.614 228.955 222.466 228.765 229.155 228.765C236.03 228.765 237.603 228.596 237.899 227.827C238.13 227.223 239.095 226.888 240.6 226.888C242.952 226.888 245.983 226.117 248.598 224.854C249.717 224.313 250.004 223.652 250 221.62C249.996 219.409 249.705 218.868 247.825 217.586C246.631 216.773 245.042 215.576 244.295 214.927C243.547 214.278 242.607 213.747 242.206 213.747C241.805 213.747 240.863 213.042 240.113 212.178C238.551 210.38 238.246 206.864 239.651 206.864C240.147 206.864 240.722 206.588 240.93 206.252C241.359 205.558 240.018 200.607 239.402 200.607C239.182 200.607 238.624 199.551 238.162 198.26C237.701 196.97 237.054 195.739 236.724 195.525C236.394 195.312 235.81 192.959 235.428 190.297L234.731 185.458L237.366 182.998C239.482 181.022 240.001 180.111 240.001 178.37C240.001 177.178 239.762 176.203 239.471 176.203C239.18 176.203 238.297 175.644 237.511 174.961C236.496 174.08 236.26 173.49 236.699 172.927C238.084 171.158 238.101 169.062 236.743 167.616C236.008 166.832 235.024 166.191 234.557 166.191C234.091 166.191 233.551 165.779 233.358 165.276C233.166 164.773 232.514 164.205 231.911 164.013C231.307 163.821 230.068 162.141 229.157 160.279C227.295 156.474 224.73 154.304 222.085 154.297C221.107 154.296 219.462 153.734 218.43 153.05C216.883 152.025 215.49 151.806 210.49 151.803C206.137 151.8 204.283 151.565 203.925 150.972C203.009 149.459 192.159 148.495 185.837 149.366C182.787 149.787 180.143 150.35 179.961 150.619C179.423 151.418 166.251 151.586 165.735 150.8C165.488 150.423 164.441 149.907 163.409 149.654C160.584 148.962 159.237 147.179 159.465 144.433C159.651 142.191 159.764 142.085 162.388 141.735C163.988 141.522 165.36 140.939 165.702 140.327C166.023 139.753 166.929 139.284 167.715 139.284C168.529 139.284 170.279 138.205 171.774 136.781C173.221 135.404 174.814 134.278 175.315 134.278C175.817 134.278 176.227 133.969 176.227 133.59C176.227 133.212 176.611 132.015 177.08 130.931C177.549 129.847 178.263 126.851 178.666 124.274C179.07 121.697 179.671 119.318 180.002 118.986C180.333 118.655 180.603 117.64 180.603 116.729C180.603 115.819 181.166 114.564 181.854 113.941C182.542 113.319 183.104 112.359 183.104 111.809C183.104 111.259 183.948 110.011 184.98 109.037C186.194 107.89 186.856 106.648 186.856 105.518C186.856 104.557 187.278 103.42 187.794 102.991C188.309 102.562 188.731 101.95 188.731 101.629C188.731 100.365 186.12 95.4 185.286 95.0803C184.801 94.8932 184.243 94.2368 184.047 93.621C183.403 91.5893 181.421 89.8503 179.749 89.8503C178.843 89.8503 178.102 90.0994 178.102 90.4041C178.102 90.7088 177.47 91.3565 176.696 91.8446C174.797 93.0403 164.894 92.4215 161.906 90.9197C160.736 90.3315 158.57 89.8503 157.092 89.8503C154.112 89.8503 148.126 88.719 147.153 87.9725C146.81 87.7078 145.576 87.2879 144.412 87.0382C143.248 86.7892 140.956 85.9119 139.319 85.089C137.682 84.2662 136.056 83.5929 135.704 83.5929C135.353 83.5929 134.947 83.2406 134.803 82.8107C134.607 82.2306 134.311 82.2069 133.656 82.7187C133.171 83.0985 130.522 83.7568 127.771 84.1811C125.02 84.6053 122.207 85.1885 121.519 85.4764C120.241 86.0107 117.422 86.4938 111.056 87.2685C109.083 87.5082 107.128 88.0463 106.71 88.4643C105.395 89.7802 102.702 89.2997 98.6978 87.0345C96.5683 85.8299 94.3343 84.8444 93.7328 84.8444C93.1313 84.8444 92.1297 84.2812 91.5076 83.5929C90.8855 82.9046 89.7932 82.3414 89.0811 82.3414C88.3095 82.3414 85.9449 80.5117 83.2383 77.8204L78.6903 73.2994V63.4283C78.6903 57.9937 78.4371 53.5572 78.1276 53.5572C77.8181 53.5572 77.2273 52.1493 76.8146 50.4285C76.402 48.7077 75.8111 47.2998 75.5016 47.2998C75.1921 47.2998 74.9389 46.7992 74.9389 46.1872C74.9389 43.1949 70.0571 41.7757 59.5063 41.7C55.5079 41.6718 54.9702 41.5242 54.5988 40.3534C54.3694 39.6307 54.4913 38.7296 54.8696 38.351C55.2472 37.9731 55.5567 36.8918 55.5567 35.9482C55.5567 35.0045 55.838 34.059 56.1819 33.8463C56.5258 33.6335 56.8072 32.8044 56.8072 32.0041C56.8072 31.2032 57.2035 29.605 57.6881 28.4518C58.3265 26.9325 58.3902 26.0214 57.9213 25.1441C57.4286 24.223 57.5055 23.7637 58.2427 23.2243C59.028 22.6499 59.2449 20.7426 59.3887 13.163L59.5663 3.81062L57.8857 2.12987C55.371 -0.384994 51.6196 -0.696614 48.1677 1.32203Z"/>
</mask>
<path fill-rule="evenodd" clip-rule="evenodd" d="M48.1677 1.32203C44.4307 3.50776 42.2073 6.10021 43.3309 6.96248C44.7639 8.06129 45.7418 16.5839 44.8452 20.1525C44.4225 21.8333 43.776 23.5422 43.4078 23.9495C43.0401 24.3569 41.9141 25.8318 40.905 27.2278C39.6089 29.0206 38.4628 29.8797 36.9973 30.1544C35.8568 30.369 34.924 30.7639 34.924 31.0323C34.924 31.3008 34.2137 31.6987 33.3453 31.9171C30.1747 32.7137 29.2969 34.3531 29.2969 39.478C29.2969 42.1893 29.033 44.1711 28.6716 44.1711C28.3278 44.1711 28.0464 45.1172 28.0464 46.2736C28.0464 48.9699 24.537 52.9315 22.1486 52.9315C21.2657 52.9315 20.5436 53.1905 20.5436 53.5078C20.5436 53.8244 19.6995 54.2693 18.6679 54.4958C16.5884 54.9526 16.3952 55.9119 17.3662 60.9397C18.2571 65.5502 19.2888 65.8118 31.1882 64.442C33.4722 64.1792 34.3112 64.3713 35.5442 65.4419C36.4921 66.2648 36.8222 66.9331 36.4133 67.2022C36.0506 67.4412 35.4385 68.56 35.0521 69.6889C34.3594 71.7163 32.9307 73.5716 31.9766 73.683C30.7512 73.8263 29.9221 74.4045 29.9221 75.1166C29.9221 75.5433 29.3594 76.542 28.6716 77.3355C27.1973 79.0368 27.0291 81.6043 28.359 82.1149C28.8748 82.3132 29.2969 82.8576 29.2969 83.3251C29.2969 83.7925 29.8833 84.4889 30.6005 84.8732C31.3176 85.2574 32.5987 86.1753 33.4465 86.9131C34.8396 88.1251 34.8896 88.3279 33.9655 89.0043C33.4028 89.416 32.7882 90.9009 32.6006 92.3045C32.4124 93.708 31.9172 94.8563 31.4996 94.8563C31.0825 94.8563 30.2316 95.4194 29.6095 96.1077C28.8086 96.9932 27.6838 97.3592 25.7612 97.3592C24.2669 97.3592 23.0445 97.6083 23.0445 97.9118C23.0445 98.2159 22.4831 98.6113 21.7972 98.7909C21.1113 98.9705 20.3598 99.6369 20.1278 100.272C19.8952 100.907 19.0455 102.271 18.2396 103.304C16.1032 106.04 16.0601 106.098 13.3428 110.096C11.9729 112.111 10.5261 114.331 10.1272 115.03C9.72894 115.729 9.16623 116.474 8.87674 116.685C7.42057 117.752 5.44046 121.458 4.96466 124.008C4.66955 125.587 4.11559 127.192 3.73295 127.574C2.01543 129.293 3.45784 132.494 6.74094 134.252C7.45496 134.635 8.03893 135.445 8.03893 136.052C8.03893 136.66 8.37906 137.497 8.79484 137.913C9.38631 138.505 9.22375 138.907 8.04893 139.759C6.01255 141.236 6.02943 141.218 4.52137 143.378C2.11046 146.83 0.456721 150.814 0.116594 153.989C-0.158508 156.564 0.0115552 157.38 1.0782 158.6C1.7916 159.415 2.5425 160.612 2.7482 161.26C2.95328 161.907 3.38344 162.437 3.70418 162.437C4.02493 162.437 4.28753 162.751 4.28753 163.136C4.28753 163.521 5.1416 164.858 6.18511 166.108C7.22863 167.359 8.35405 168.722 8.68605 169.137C9.01804 169.552 9.2894 171.19 9.2894 172.776C9.2894 177.975 12.1867 181.158 16.9485 181.189C18.5822 181.2 19.9184 180.935 19.9184 180.599C19.9184 180.264 20.8331 179.521 21.9504 178.949C23.0683 178.377 25.0096 177.101 26.2651 176.113C27.7363 174.956 29.6251 174.179 31.5796 173.925C33.2471 173.709 35.104 173.104 35.7055 172.58C36.6796 171.733 36.9197 171.732 37.8938 172.569C38.4953 173.087 39.4982 173.691 40.1215 173.913C40.7455 174.135 41.0806 174.6 40.8662 174.947C40.6524 175.294 40.8456 175.596 41.2957 175.62C41.7459 175.643 41.4808 175.968 40.7074 176.341C39.934 176.714 39.3006 177.224 39.3006 177.474C39.3006 177.724 38.3959 178.304 37.2899 178.762C36.1838 179.22 34.2525 180.592 32.9976 181.81C31.7428 183.028 29.3775 185.259 27.7419 186.767C26.1063 188.276 24.5614 190.247 24.3088 191.148C23.8286 192.86 25.0678 196.227 26.1776 196.227C26.5083 196.227 27.53 197.423 28.4491 198.886C29.3675 200.348 30.915 202.711 31.8866 204.137C33.4203 206.386 33.531 206.829 32.7257 207.498C32.2155 207.922 31.7978 208.939 31.7978 209.757C31.7978 210.575 31.4964 211.245 31.1276 211.245C30.7593 211.245 30.5092 211.878 30.5717 212.652C30.7655 215.049 30.5874 215.528 29.3531 215.919C28.5497 216.175 27.9164 217.314 27.4155 219.404C27.006 221.111 26.4608 222.508 26.2032 222.508C25.5398 222.508 24.2931 232.024 24.2944 237.076C24.295 240.571 24.4882 241.379 25.3892 241.658C25.9906 241.845 26.9716 242.258 27.5687 242.577C28.1658 242.896 29.0805 243.157 29.6007 243.157C30.1303 243.157 30.5473 243.709 30.5473 244.409C30.5473 245.097 30.7618 245.66 31.0244 245.66C31.2864 245.66 31.779 246.294 32.1186 247.068C32.9595 248.987 39.5763 249.83 43.4865 248.518C45.8737 247.716 46.3201 247.745 48.464 248.839C51.1819 250.226 53.3965 250.376 54.642 249.258C55.1209 248.829 55.9331 248.125 56.4464 247.694C56.9797 247.247 59.0936 246.912 61.3789 246.912C64.7776 246.912 65.6311 246.677 67.0641 245.348C69.1211 243.44 70.3428 243.373 71.734 245.092C72.3167 245.812 73.4871 246.386 74.3349 246.367C76.7665 246.314 80.7605 245.634 82.1291 245.04C82.8169 244.742 86.8965 244.188 91.195 243.809C95.4935 243.43 99.1042 242.847 99.2186 242.513C99.3337 242.179 99.8257 241.906 100.313 241.906C100.929 241.906 101.199 241.145 101.199 239.403V236.9H104.854C106.865 236.9 109.326 237.298 110.325 237.784C112.413 238.802 125.296 239.323 128.621 238.526C129.776 238.248 131.254 237.566 131.903 237.009C133.139 235.95 133.493 234.025 132.518 233.667C132.205 233.552 131.853 232.895 131.736 232.207C131.582 231.303 131.914 230.9 132.929 230.755C133.703 230.646 134.336 230.338 134.336 230.072C134.336 229.807 135.532 229.232 136.993 228.795C138.455 228.359 139.833 227.711 140.055 227.356C140.537 226.588 153.369 225.413 155.483 225.944C156.69 226.247 156.819 226.478 156.198 227.227C155.782 227.729 155.091 228.14 154.664 228.14C154.237 228.14 153.117 228.746 152.175 229.487C150.646 230.691 150.507 231.109 150.872 233.398C151.543 237.61 152.507 238.542 156.632 238.967C158.63 239.174 160.361 239.638 160.481 239.999C160.752 240.81 162.135 240.843 163.575 240.074C164.172 239.754 167.187 239.171 170.276 238.778C173.364 238.386 176.178 237.827 176.528 237.538C176.878 237.248 178.923 236.648 181.072 236.205C183.222 235.761 184.98 235.205 184.98 234.97C184.98 234.734 186.564 234.343 188.501 234.101C191.421 233.736 192.357 233.296 193.977 231.526C195.903 229.422 196.02 229.387 202.279 229.068C207.432 228.804 208.806 228.922 209.577 229.693C210.899 231.017 218.898 231.025 219.993 229.704C220.614 228.955 222.466 228.765 229.155 228.765C236.03 228.765 237.603 228.596 237.899 227.827C238.13 227.223 239.095 226.888 240.6 226.888C242.952 226.888 245.983 226.117 248.598 224.854C249.717 224.313 250.004 223.652 250 221.62C249.996 219.409 249.705 218.868 247.825 217.586C246.631 216.773 245.042 215.576 244.295 214.927C243.547 214.278 242.607 213.747 242.206 213.747C241.805 213.747 240.863 213.042 240.113 212.178C238.551 210.38 238.246 206.864 239.651 206.864C240.147 206.864 240.722 206.588 240.93 206.252C241.359 205.558 240.018 200.607 239.402 200.607C239.182 200.607 238.624 199.551 238.162 198.26C237.701 196.97 237.054 195.739 236.724 195.525C236.394 195.312 235.81 192.959 235.428 190.297L234.731 185.458L237.366 182.998C239.482 181.022 240.001 180.111 240.001 178.37C240.001 177.178 239.762 176.203 239.471 176.203C239.18 176.203 238.297 175.644 237.511 174.961C236.496 174.08 236.26 173.49 236.699 172.927C238.084 171.158 238.101 169.062 236.743 167.616C236.008 166.832 235.024 166.191 234.557 166.191C234.091 166.191 233.551 165.779 233.358 165.276C233.166 164.773 232.514 164.205 231.911 164.013C231.307 163.821 230.068 162.141 229.157 160.279C227.295 156.474 224.73 154.304 222.085 154.297C221.107 154.296 219.462 153.734 218.43 153.05C216.883 152.025 215.49 151.806 210.49 151.803C206.137 151.8 204.283 151.565 203.925 150.972C203.009 149.459 192.159 148.495 185.837 149.366C182.787 149.787 180.143 150.35 179.961 150.619C179.423 151.418 166.251 151.586 165.735 150.8C165.488 150.423 164.441 149.907 163.409 149.654C160.584 148.962 159.237 147.179 159.465 144.433C159.651 142.191 159.764 142.085 162.388 141.735C163.988 141.522 165.36 140.939 165.702 140.327C166.023 139.753 166.929 139.284 167.715 139.284C168.529 139.284 170.279 138.205 171.774 136.781C173.221 135.404 174.814 134.278 175.315 134.278C175.817 134.278 176.227 133.969 176.227 133.59C176.227 133.212 176.611 132.015 177.08 130.931C177.549 129.847 178.263 126.851 178.666 124.274C179.07 121.697 179.671 119.318 180.002 118.986C180.333 118.655 180.603 117.64 180.603 116.729C180.603 115.819 181.166 114.564 181.854 113.941C182.542 113.319 183.104 112.359 183.104 111.809C183.104 111.259 183.948 110.011 184.98 109.037C186.194 107.89 186.856 106.648 186.856 105.518C186.856 104.557 187.278 103.42 187.794 102.991C188.309 102.562 188.731 101.95 188.731 101.629C188.731 100.365 186.12 95.4 185.286 95.0803C184.801 94.8932 184.243 94.2368 184.047 93.621C183.403 91.5893 181.421 89.8503 179.749 89.8503C178.843 89.8503 178.102 90.0994 178.102 90.4041C178.102 90.7088 177.47 91.3565 176.696 91.8446C174.797 93.0403 164.894 92.4215 161.906 90.9197C160.736 90.3315 158.57 89.8503 157.092 89.8503C154.112 89.8503 148.126 88.719 147.153 87.9725C146.81 87.7078 145.576 87.2879 144.412 87.0382C143.248 86.7892 140.956 85.9119 139.319 85.089C137.682 84.2662 136.056 83.5929 135.704 83.5929C135.353 83.5929 134.947 83.2406 134.803 82.8107C134.607 82.2306 134.311 82.2069 133.656 82.7187C133.171 83.0985 130.522 83.7568 127.771 84.1811C125.02 84.6053 122.207 85.1885 121.519 85.4764C120.241 86.0107 117.422 86.4938 111.056 87.2685C109.083 87.5082 107.128 88.0463 106.71 88.4643C105.395 89.7802 102.702 89.2997 98.6978 87.0345C96.5683 85.8299 94.3343 84.8444 93.7328 84.8444C93.1313 84.8444 92.1297 84.2812 91.5076 83.5929C90.8855 82.9046 89.7932 82.3414 89.0811 82.3414C88.3095 82.3414 85.9449 80.5117 83.2383 77.8204L78.6903 73.2994V63.4283C78.6903 57.9937 78.4371 53.5572 78.1276 53.5572C77.8181 53.5572 77.2273 52.1493 76.8146 50.4285C76.402 48.7077 75.8111 47.2998 75.5016 47.2998C75.1921 47.2998 74.9389 46.7992 74.9389 46.1872C74.9389 43.1949 70.0571 41.7757 59.5063 41.7C55.5079 41.6718 54.9702 41.5242 54.5988 40.3534C54.3694 39.6307 54.4913 38.7296 54.8696 38.351C55.2472 37.9731 55.5567 36.8918 55.5567 35.9482C55.5567 35.0045 55.838 34.059 56.1819 33.8463C56.5258 33.6335 56.8072 32.8044 56.8072 32.0041C56.8072 31.2032 57.2035 29.605 57.6881 28.4518C58.3265 26.9325 58.3902 26.0214 57.9213 25.1441C57.4286 24.223 57.5055 23.7637 58.2427 23.2243C59.028 22.6499 59.2449 20.7426 59.3887 13.163L59.5663 3.81062L57.8857 2.12987C55.371 -0.384994 51.6196 -0.696614 48.1677 1.32203Z" stroke="white" stroke-width="2" mask="url(#path-1-inside-1_20_31)"/>
</svg>
