<svg width="250" height="356" viewBox="0 0 250 356" fill="none" xmlns="http://www.w3.org/2000/svg">
<mask id="path-1-inside-1_21_45" fill="white">
<path fill-rule="evenodd" clip-rule="evenodd" d="M12.2649 53.7317V107.47L11.0119 107.614C9.90797 107.741 9.74168 107.975 9.61137 109.581C9.53027 110.583 9.12295 111.781 8.70606 112.242C7.9994 113.024 8.00029 113.119 8.71607 113.642C9.43139 114.165 9.42638 114.253 8.64135 114.925C8.17798 115.321 7.41984 115.614 6.95647 115.575C6.35415 115.525 6.07304 115.861 5.97007 116.758C5.89079 117.447 6.04843 118.011 6.32043 118.011C6.62023 118.011 6.70224 118.459 6.52911 119.15C6.29173 120.095 6.40656 120.289 7.20389 120.289C8.45456 120.289 8.44908 121.504 7.19613 121.902C6.31542 122.181 6.2539 122.432 6.51679 124.667L6.80522 127.124H5.20689C3.92523 127.124 3.60814 127.3 3.60814 128.013C3.60814 128.502 3.9389 129.087 4.34304 129.313C4.8998 129.624 4.60822 129.787 3.14159 129.984C2.07635 130.127 0.873973 130.585 0.469839 131.003C-0.207209 131.703 -0.185327 131.816 0.750513 132.454C1.55969 133.005 1.67176 133.32 1.30407 134.008C1.03708 134.506 1.02023 134.87 1.26353 134.87C1.97566 134.87 1.60388 136.446 0.814751 136.772C0.30537 136.983 0.0634422 137.667 0.045673 138.949C0.0219809 140.662 0.179616 140.918 1.92782 142.007C2.97757 142.66 3.92207 143.271 4.02777 143.363C4.13302 143.456 3.7357 144.047 3.14476 144.675C2.24902 145.629 2.14287 146.027 2.50691 147.066C2.8386 148.011 3.31746 148.368 4.48931 148.54C5.87302 148.745 5.95549 148.833 5.27708 149.393C3.56805 150.805 5.18732 153.981 7.27769 153.317C7.98071 153.094 8.18118 153.157 7.95064 153.53C7.45811 154.327 8.05313 156.147 8.91471 156.477C9.37124 156.653 10.0642 156.401 10.6565 155.844C11.1974 155.336 12.1906 154.92 12.8636 154.92H14.0874V246.68V338.442L18.6823 342.852C21.2091 345.278 23.8052 347.464 24.4513 347.709C25.902 348.261 29.1934 347.83 31.6665 346.764C32.6898 346.323 34.8535 344.837 36.4741 343.462C39.5869 340.821 40.6276 340.433 45.5701 340.071C49.1235 339.811 52.1597 340.956 54.4095 343.406C55.6907 344.801 56.0188 344.912 59.6492 345.176C67.3824 345.74 70.5074 345.48 74.7843 343.919C75.5548 343.638 77.6224 343.606 80.2518 343.836C85.7087 344.312 90.7815 344.124 93.3649 343.35C96.5724 342.388 99.2237 342.132 100.257 342.685C100.971 343.067 101.723 343.015 103.403 342.465C104.616 342.068 106.042 341.743 106.571 341.743C107.1 341.743 108.366 341.341 109.384 340.848C111.142 339.999 111.289 339.994 112.31 340.734C112.9 341.164 113.39 341.669 113.398 341.857C113.406 342.045 113.657 342.199 113.957 342.199C114.257 342.199 115.299 342.751 116.273 343.426C117.415 344.217 119.042 344.795 120.854 345.054C122.399 345.274 124.704 345.6 125.976 345.778C128.481 346.129 132.029 348.104 135.054 350.831C137.76 353.271 139.671 354.496 141.083 354.697C141.777 354.796 142.988 355.136 143.774 355.453C145.74 356.246 147.435 355.545 157.71 349.689C165.717 345.125 172.251 340.862 175.856 337.849C177.99 336.066 179.234 335.609 183.805 334.928C186.869 334.472 187.655 334.171 188.737 333.04C191.306 330.355 191.967 330.14 198.44 329.896C204.025 329.684 204.55 329.588 205.637 328.565C206.283 327.958 206.948 327.599 207.116 327.767C207.284 327.935 207.182 328.073 206.89 328.073C206.597 328.073 206.358 328.483 206.358 328.984C206.358 329.673 206.664 329.897 207.611 329.902C208.3 329.905 209.298 330.025 209.829 330.167C210.591 330.371 210.839 330.188 211.01 329.296C211.353 327.5 210.885 325.339 210.152 325.339C209.763 325.339 209.63 325.119 209.825 324.803C210.441 323.806 210.408 320.958 209.729 316.645C209.358 314.284 208.886 310.951 208.68 309.239C208.321 306.24 208.209 306.023 205.594 303.316C202.872 300.496 200.435 297.43 200.435 296.824C200.435 296.646 200.033 296.068 199.542 295.541C196.271 292.03 195.576 291.159 195.826 290.878C195.981 290.704 195.853 290.708 195.544 290.886C195.212 291.077 194.425 290.64 193.623 289.82C192.876 289.055 191.988 288.43 191.651 288.43C191.314 288.43 190.448 287.815 189.728 287.063C189.008 286.311 188.637 285.696 188.903 285.696C189.17 285.696 189.648 286.009 189.966 286.392C190.839 287.444 194.468 289.797 195.218 289.797C196.317 289.797 195.985 289.061 193.584 286.175C191.803 284.035 191.013 283.419 190.053 283.424C188.312 283.434 187.581 284.003 187.979 285.037C188.217 285.66 187.745 285.451 186.285 284.286C183.767 282.276 181.343 281.524 174.595 280.659C171.124 280.213 171.602 280.454 161.372 274.004C157.68 271.676 156.532 271.176 154.644 271.07C153.392 271 151.732 270.684 150.955 270.368C149.692 269.853 149.061 269.956 144.965 271.347C142.448 272.201 139.598 273.44 138.632 274.1C137.138 275.12 136.503 275.271 134.371 275.116C132.692 274.994 131.251 274.543 130.007 273.751C128.242 272.628 128.063 272.298 126.453 267.171C125.52 264.203 124.588 261.466 124.382 261.09C124.08 260.54 122.973 260.413 118.702 260.442C113.747 260.477 113.314 260.552 112.151 261.591C109.566 263.9 107.984 264.735 106.193 264.735C104.252 264.735 100.49 263.419 102.336 263.386C102.885 263.376 103.461 263.573 103.616 263.824C103.97 264.397 105.98 264.423 106.328 263.859C106.471 263.628 107.252 263.298 108.064 263.126C108.875 262.954 110.577 262.02 111.846 261.051C114.087 259.338 114.28 259.282 118.639 259.058C122.576 258.856 123.307 258.94 124.599 259.738C126.323 260.803 127.305 262.708 127.754 265.858C127.932 267.101 128.378 268.873 128.747 269.794C129.325 271.24 129.795 271.607 132.173 272.474C133.689 273.027 135.367 273.386 135.903 273.271C137.802 272.863 138.228 272.704 138.785 272.19C139.095 271.903 140.879 271.032 142.751 270.253C145.354 269.169 146.83 268.839 149.032 268.845C154.011 268.861 157.398 269.579 160.887 271.357C163.834 272.859 164.438 273.01 166.541 272.762C168.111 272.578 169.537 272.713 170.826 273.167C173.288 274.036 174.836 274.028 176.972 273.135C180.682 271.585 200.666 267.014 203.734 267.014C204.805 267.014 206.397 266.798 207.273 266.534C208.148 266.27 213.665 265.899 219.534 265.709L230.204 265.363L231.924 263.425C232.907 262.317 233.536 261.204 233.391 260.828C233.041 259.914 230.994 259.483 229.988 260.112C228.464 261.064 228.432 260.643 229.936 259.457C231.186 258.472 231.417 257.992 231.414 256.387C231.412 254.722 231.225 254.374 229.934 253.618L228.456 252.754L229.936 252.353C230.751 252.132 231.417 251.84 231.417 251.706C231.417 251.328 228.997 248.173 228.228 247.548C227.852 247.243 226.827 246.954 225.95 246.906L224.355 246.818L225.915 246.629C227.038 246.492 228.454 246.899 230.975 248.082C234.314 249.649 234.707 249.726 239.507 249.752C245.077 249.782 246.453 249.362 246.453 247.632C246.453 246.698 246.674 246.509 247.764 246.509C249.412 246.509 250.286 245.5 249.916 244.024C249.76 243.403 247.995 241.173 245.993 239.069C241.446 234.288 240.473 233.056 240.886 232.599C241.066 232.4 240.976 232.373 240.685 232.539C240.369 232.72 236.995 229.415 232.27 224.296C227.932 219.597 223.128 214.418 221.594 212.789C220.061 211.16 217.373 208.29 215.621 206.41C213.87 204.53 207.776 198.02 202.08 191.943C195.789 185.23 191.852 180.686 192.049 180.367C192.261 180.024 192.173 179.965 191.798 180.197C191.48 180.393 191.09 180.348 190.93 180.097C190.77 179.845 188.487 177.333 185.855 174.512C183.224 171.693 180.149 168.36 179.021 167.107L176.971 164.829L176.743 157.938L176.515 151.047L163.302 150.696C156.035 150.502 149.013 150.231 147.697 150.093L145.305 149.842V111.867V73.8922L143.99 72.8264C143.266 72.2404 141.187 70.8379 139.37 69.7101C137.554 68.5823 135.838 67.4546 135.557 67.204C135.277 66.9533 133.847 65.9381 132.379 64.9484C130.911 63.9582 129.189 62.3178 128.551 61.3031C126.127 57.4445 124.219 55.3457 121.482 53.5262C119.925 52.4919 116.499 50.1452 113.868 48.3116C108.431 44.5232 105.421 42.8099 102.5 41.842L100.472 41.1699L100.602 38.7048C100.759 35.7634 100.965 35.3324 103.361 32.9356C104.379 31.9181 105.211 30.8969 105.211 30.6664C105.211 30.4353 98.5986 28.0522 90.5173 25.3697C39.6288 8.4795 13.7579 0.00547858 13.0622 1.05877e-05C12.3073 -0.00636874 12.2649 2.8534 12.2649 53.7317ZM35.9853 8.66086C48.1234 12.6757 68.1009 19.266 80.3798 23.3051C92.6587 27.3441 102.878 30.747 103.09 30.8668C103.301 30.9867 102.654 31.9326 101.653 32.9684C99.9149 34.7646 99.8164 35.0239 99.5139 38.5908L99.1968 42.33L100.495 42.6157C103.198 43.2104 106.428 44.843 111.095 47.9735C113.747 49.7528 115.986 51.3727 116.07 51.5737C116.154 51.7746 116.415 51.9391 116.65 51.9391C116.886 51.9391 118.591 52.9803 120.44 54.2535C123.155 56.1221 124.291 57.3014 126.339 60.3803C128.804 64.0835 129.089 64.3346 136.229 69.0927C140.273 71.787 143.66 74.2075 143.756 74.4709C143.852 74.7348 143.984 92.0719 144.049 112.998L144.166 151.047L150.773 151.379C154.406 151.562 161.429 151.84 166.378 151.998L175.376 152.285L175.41 157.134C175.46 164.398 175.71 165.354 178.286 168.19C180.322 170.431 187.555 178.239 190.705 181.596C191.421 182.359 194.569 185.735 197.701 189.098C200.834 192.461 204.745 196.656 206.393 198.419C208.041 200.182 212.637 205.111 216.608 209.372C220.578 213.632 225.178 218.554 226.829 220.308C228.481 222.062 232.388 226.266 235.511 229.649C238.635 233.032 242.887 237.588 244.96 239.772C249.013 244.041 249.525 245.142 247.455 245.142C245.915 245.142 245.086 245.882 245.086 247.255C245.086 248.115 244.763 248.324 243.037 248.583C238.859 249.209 235.08 248.644 231.339 246.834L227.843 245.142H220.959C214.801 245.142 214.049 245.057 213.827 244.344C213.69 243.906 213.147 242.395 212.62 240.987C211.73 238.611 211.513 238.381 209.579 237.769C207.164 237.004 203.624 237.193 203.624 238.086C203.624 239.184 206.344 241.041 207.951 241.041C209.274 241.041 209.515 241.221 209.775 242.408C209.94 243.159 210.239 243.775 210.438 243.775C210.637 243.775 210.922 244.383 211.071 245.127C211.378 246.661 214.085 248.635 216.509 249.091C218.413 249.45 219.571 250.482 219.571 251.819C219.571 252.407 219.776 252.888 220.027 252.888C220.8 252.888 220.529 254.179 219.722 254.336C219.305 254.417 218.93 254.933 218.89 255.482C218.849 256.032 218.935 256.443 219.079 256.396C219.577 256.236 222.716 258.403 224.34 260.027C225.923 261.61 226.038 261.646 228.912 261.463C231.772 261.281 231.843 261.303 231.259 262.183C229.916 264.205 227.44 264.659 217.44 264.716C212.521 264.745 208.293 264.894 208.043 265.048C207.794 265.202 205.749 265.498 203.499 265.706C199.447 266.08 179.763 270.602 176.801 271.84C174.908 272.631 172.455 272.666 171.132 271.922C170.58 271.612 168.511 271.357 166.492 271.352C163.645 271.345 162.876 271.205 162.979 270.717C163.059 270.34 162.856 270.19 162.469 270.338C162.116 270.474 161.145 270.17 160.312 269.663C158.321 268.453 154.245 267.741 149.178 267.721C145.162 267.705 144.977 267.753 140.215 270.048L135.353 272.392L132.827 271.411C129.921 270.283 129.634 269.807 128.735 264.62C128.241 261.768 127.874 260.858 126.83 259.89C124.413 257.65 121.455 256.914 119.129 257.974C118.249 258.374 117.688 258.375 116.811 257.975C115.388 257.326 112.982 258.201 110.906 260.123C109.489 261.435 106.308 262.626 105.521 262.139C105.268 261.983 105.213 262.092 105.396 262.386C105.852 263.125 105.397 263.054 101.956 261.849L98.9294 260.789L99.1221 261.964C99.2278 262.611 99.3426 263.385 99.3772 263.685C99.4114 263.984 99.5595 264.209 99.7057 264.184C99.8515 264.159 100.706 264.466 101.603 264.867C102.501 265.268 104.297 265.736 105.594 265.908C108.07 266.236 109.186 265.742 113.105 262.584C114.249 261.662 114.892 261.546 118.852 261.546H123.311L124.079 264.166C124.502 265.607 125.248 267.815 125.737 269.073C126.225 270.331 126.625 271.705 126.625 272.125C126.625 273.08 129.253 275.123 131.522 275.932C134.38 276.953 136.677 276.74 139.047 275.237C142.258 273.201 149.284 270.965 150.744 271.515C151.386 271.757 153.037 272.087 154.412 272.248C156.394 272.481 157.67 273.044 160.563 274.962C169.599 280.952 171.901 282.013 175.919 282.04C176.844 282.046 177.709 282.226 177.841 282.44C177.973 282.654 179.358 282.962 180.918 283.126C182.478 283.289 183.868 283.592 184.007 283.799C184.497 284.529 190.2 289.172 191.664 290.033C192.479 290.513 193.145 291.06 193.145 291.251C193.145 291.441 193.738 291.903 194.462 292.277C195.826 292.982 200.669 298.811 201.006 300.153C201.147 300.715 202.312 302.026 204.826 304.453C207.045 306.595 207.18 306.86 207.414 309.533C207.55 311.083 207.863 313.275 208.11 314.403C208.357 315.531 208.705 318.135 208.883 320.191L209.206 323.928L207.825 325.203C204.323 328.436 204.079 328.529 198.996 328.531C193.038 328.534 191.26 329.039 188.643 331.47C186.721 333.256 186.267 333.453 183.398 333.754C179.249 334.189 177.004 335.027 174.738 336.988C171.19 340.06 166.738 343.118 162.217 345.586C159.722 346.949 156.862 348.582 155.86 349.214C154.859 349.846 152.289 351.294 150.149 352.432C146.356 354.45 144.282 354.97 143.711 354.046C143.556 353.795 142.914 353.59 142.284 353.59C140.899 353.59 137.69 351.773 136.165 350.125C133.912 347.691 129.134 345.004 126.502 344.692C119.716 343.887 118.916 343.708 117.353 342.644C116.442 342.023 115.695 341.349 115.693 341.146C115.692 340.944 115.494 340.899 115.255 341.047C114.729 341.372 112.44 339.476 112.751 338.973C113.172 338.291 111.075 338.01 110.304 338.646C108.377 340.234 102.023 341.894 100.332 341.251C99.1189 340.79 95.0174 341.294 92.6874 342.19C90.4038 343.069 84.0616 343.306 80.5534 342.644C77.7071 342.107 77.0141 342.129 74.3096 342.841C71.2 343.66 66.3426 344.514 65.1166 344.458C56.6826 344.07 56.5172 344.036 55.2593 342.386C54.1539 340.937 53.4687 340.509 49.9459 339.073C48.4095 338.447 43.6975 338.388 42.2432 338.977C41.6677 339.211 40.6499 339.518 39.9819 339.66C39.314 339.802 37.6738 340.858 36.337 342.007C32.3121 345.466 30.4317 346.375 27.1417 346.456L24.2472 346.527L19.8537 342.199L15.4601 337.87L15.3435 245.846L15.2264 153.822L12.7205 153.955C11.3423 154.028 9.94169 154.313 9.60817 154.59C9.11474 154.999 9.05868 154.789 9.30745 153.463C9.66147 151.576 9.09743 150.987 7.66907 151.751C6.31953 152.474 5.44839 151.624 6.23934 150.358C7.41712 148.472 6.91183 147.405 4.9308 147.594C4.53077 147.631 3.9567 147.365 3.65508 147.002C3.21176 146.468 3.33888 146.126 4.31709 145.219C5.87758 143.772 5.54179 142.647 3.14751 141.302C1.12639 140.166 0.620185 138.347 2.18706 137.85C3.12472 137.552 3.90292 134.879 3.18213 134.433C2.91833 134.27 2.90695 133.9 3.15344 133.502C3.42498 133.063 3.31654 132.569 2.83086 132.033C2.14925 131.279 2.17886 131.225 3.27235 131.225C5.12489 131.225 5.88623 130.755 5.88623 129.612C5.88623 128.794 6.17281 128.519 7.13918 128.407C7.90051 128.32 8.34156 128.022 8.26365 127.649C8.19257 127.311 8.0117 126.138 7.86134 125.041C7.6103 123.21 7.68274 123.01 8.74296 122.607C10.1276 122.081 10.6433 121.379 9.95717 120.954C9.68244 120.784 9.57674 120.169 9.723 119.587C9.92256 118.791 9.76263 118.457 9.07647 118.239C7.89186 117.863 7.91237 117.272 9.12158 116.955C9.64782 116.818 9.94896 116.495 9.7904 116.239C9.63185 115.982 10.0214 115.432 10.6556 115.017C11.8917 114.207 12.1683 113.195 11.2397 112.883C10.7891 112.731 10.7937 112.541 11.2621 111.974C11.6594 111.492 11.6967 111.16 11.376 110.962C10.37 110.34 10.8675 108.962 12.151 108.814L13.4039 108.67L13.5197 55.0149C13.5835 25.5046 13.6987 1.36017 13.7757 1.36017C13.8527 1.36017 23.8472 4.64553 35.9853 8.66086ZM209.264 238.996C210.172 239.376 210.914 239.736 210.914 239.797C210.914 240.189 206.419 239.448 205.687 238.935C204.84 238.343 204.87 238.307 206.201 238.307C206.978 238.307 208.357 238.617 209.264 238.996ZM212.225 243.547C212.904 245.446 212.992 246.011 212.514 245.396C212.135 244.91 211.826 244.153 211.826 243.714C211.826 243.276 211.621 242.79 211.37 242.635C211.119 242.481 210.914 241.922 210.914 241.393C210.914 240.086 211.089 240.373 212.225 243.547ZM218.567 246.457L220.98 246.509L220.162 247.612C219.656 248.293 219.178 248.555 218.91 248.295C218.672 248.065 217.996 247.876 217.407 247.876C216.407 247.876 213.648 246.716 213.648 246.296C213.648 246.192 214.212 246.175 214.901 246.256C215.59 246.338 217.24 246.428 218.567 246.457ZM225.681 248.133C227.262 248.38 229.081 249.748 229.124 250.724C229.132 250.912 228.268 251.068 227.203 251.07C226.137 251.073 224.531 251.197 223.632 251.346C222.119 251.596 221.954 251.507 221.388 250.14C220.838 248.812 220.862 248.602 221.631 248.04C222.101 247.697 222.803 247.514 223.192 247.635C223.581 247.755 224.701 247.98 225.681 248.133ZM224.241 252.964C222.539 253.345 222.305 253.549 222.305 254.646C222.305 255.333 222.561 256.165 222.874 256.494C223.216 256.854 222.827 256.781 221.897 256.311C220.964 255.84 220.552 255.405 220.86 255.215C221.141 255.041 221.463 254.395 221.576 253.78C221.689 253.164 221.797 252.609 221.815 252.546C221.834 252.483 222.823 252.454 224.013 252.481L226.178 252.53L224.241 252.964ZM229.039 254.494C230.264 255.232 230.486 255.599 230.272 256.533C230.129 257.16 229.592 258.027 229.08 258.461C228.26 259.156 228.004 259.174 226.935 258.618C225.436 257.838 223.672 255.847 223.672 254.935C223.672 254.486 224.127 254.255 225.012 254.255C225.749 254.255 226.485 254.039 226.648 253.775C226.977 253.242 226.947 253.233 229.039 254.494ZM204.84 270.507C204.227 271.12 204.573 271.812 205.769 272.368C207.007 272.943 215.523 273.188 216.047 272.664C216.198 272.514 216.097 271.898 215.823 271.297C215.34 270.237 215.165 270.203 210.234 270.203C207.434 270.203 205.006 270.34 204.84 270.507ZM202.146 270.996C201.512 271.143 201.445 271.36 201.82 272.059C202.336 273.025 203.396 273.219 203.879 272.438C204.302 271.753 203.121 270.77 202.146 270.996ZM214.521 271.3C214.126 271.686 207.753 271.894 207.988 271.513C208.124 271.294 209.691 271.115 211.473 271.115C213.254 271.115 214.626 271.198 214.521 271.3ZM195.423 271.992C195.047 272.216 193.1 272.455 191.095 272.524C186.107 272.695 185.204 273.458 188.213 274.959C189.201 275.452 190.949 275.671 193.897 275.671H198.154L198.78 274.19C199.124 273.376 199.278 272.577 199.123 272.416C198.597 271.869 196.111 271.584 195.423 271.992ZM219.175 273.093C218.896 273.429 218.802 273.839 218.967 274.004C219.132 274.169 217.183 274.304 214.635 274.304C211.851 274.304 210.003 274.486 210.003 274.76C210.003 275.381 206.529 275.336 204.751 274.693C202.685 273.946 201.052 274.473 200.764 275.979C200.479 277.47 200.788 278.405 201.567 278.405C201.885 278.405 202.401 278.713 202.713 279.089C203.025 279.465 203.743 279.772 204.308 279.772C204.873 279.772 205.59 280.08 205.903 280.456C206.218 280.836 207.212 281.139 208.143 281.139C209.331 281.139 210.784 281.735 213.143 283.19C214.972 284.318 216.622 285.24 216.81 285.24C216.998 285.24 217.531 285.659 217.995 286.172C218.673 286.921 219.292 287.078 221.141 286.97C222.761 286.875 223.407 286.656 223.319 286.232C223.25 285.9 223.404 285.758 223.66 285.917C223.917 286.076 224.127 286.491 224.127 286.841C224.127 288.282 225.204 289.797 226.229 289.797C228.388 289.797 229.491 288.889 229.795 286.861C230.224 283.995 229.842 283.418 227.512 283.418C225.965 283.418 225.414 283.208 225.018 282.467C224.738 281.944 224.622 281.404 224.76 281.265C224.899 281.127 224.556 280.379 224 279.602C222.66 277.732 221.831 276.127 222.205 276.127C222.37 276.127 223.668 277.277 225.088 278.682C227.593 281.162 227.724 281.227 229.543 280.92C231.117 280.654 231.417 280.432 231.417 279.531C231.417 278.942 231.209 278.33 230.954 278.173C230.7 278.015 230.607 277.7 230.747 277.472C231.121 276.868 230.186 275.327 228.532 273.822C227.194 272.604 226.82 272.508 223.386 272.495C220.83 272.486 219.526 272.671 219.175 273.093ZM197.589 273.507C197.459 273.901 196.144 274.092 193.336 274.128C189.498 274.178 189.441 274.165 192.311 273.901C193.982 273.747 195.503 273.467 195.69 273.279C196.259 272.708 197.792 272.892 197.589 273.507ZM228.079 275.33C228.847 276.144 229.6 277.477 229.752 278.291C230.198 280.691 228.463 280.273 225.494 277.266C224.133 275.888 222.768 274.76 222.461 274.76C222.154 274.76 221.776 274.555 221.621 274.304C221.446 274.02 222.346 273.849 224.011 273.849C226.435 273.849 226.812 273.986 228.079 275.33ZM204.764 276.127C204.918 276.378 206.365 276.583 207.98 276.583C209.632 276.583 210.914 276.383 210.914 276.127C210.914 275.853 212.776 275.671 215.587 275.671H220.26L220.891 277.152C221.239 277.967 221.876 279.043 222.307 279.544C223.03 280.386 224.127 283.036 224.127 283.941C224.127 284.154 223.813 284.329 223.43 284.329C223.046 284.329 222.614 284.637 222.47 285.012C222.162 285.815 219.331 285.957 218.859 285.194C218.688 284.918 217.907 284.399 217.124 284.042C216.34 283.685 214.468 282.592 212.965 281.614C211.207 280.471 209.662 279.82 208.636 279.79C207.759 279.764 206.643 279.442 206.157 279.074C205.671 278.706 204.953 278.401 204.563 278.395C203.489 278.38 201.625 276.782 201.991 276.189C202.387 275.55 204.379 275.505 204.764 276.127ZM179.932 276.553C179.932 276.82 179.33 277.038 178.595 277.038C177.86 277.038 176.783 277.219 176.203 277.439C175.623 277.66 175.026 277.814 174.877 277.781C174.369 277.67 173.098 278.97 173.098 279.6C173.098 280.343 176.524 280.495 176.971 279.772C177.126 279.522 178.483 279.317 179.988 279.317H182.724L182.581 277.836C182.462 276.602 182.229 276.331 181.185 276.211C180.496 276.132 179.932 276.285 179.932 276.553ZM196.221 279.214C195.782 279.307 195.424 279.522 195.424 279.692C195.424 279.861 194.297 279.93 192.918 279.844C190.152 279.672 189.711 280.22 191.209 281.97C192.311 283.258 202.115 289.341 203.088 289.341C203.524 289.341 205.105 290.587 206.6 292.109C209.624 295.185 210.06 295.476 213.66 296.827C218.522 298.651 222.601 301.203 223.658 303.084C224.199 304.047 224.897 304.834 225.209 304.834C225.941 304.834 228.683 302.161 228.683 301.447C228.683 300.773 226.312 298.455 225.621 298.455C224.895 298.455 222.265 295.008 222.659 294.572C222.84 294.371 222.765 294.335 222.491 294.491C222.217 294.647 221.297 294.054 220.444 293.175C219.592 292.296 217.458 290.703 215.702 289.637C213.946 288.569 211.381 287.005 210.003 286.159C207.571 284.668 205.477 284.122 200.093 283.576C198.456 283.41 197.701 283.131 197.701 282.692C197.701 282.339 197.997 282.051 198.358 282.051C199.412 282.051 199.656 281.181 198.919 280.056C198.244 279.026 197.781 278.881 196.221 279.214ZM195.846 282.34C197.351 284.253 196.958 284.424 194.512 282.919C193.259 282.148 192.234 281.432 192.234 281.328C192.234 281.224 192.834 281.139 193.568 281.139C194.466 281.139 195.21 281.531 195.846 282.34ZM234.037 282.352C232.516 283.153 232.444 283.765 233.809 284.292C234.373 284.51 235.331 285.222 235.939 285.875C237.139 287.165 238.251 287.435 238.251 286.435C238.251 286.09 238.559 285.552 238.935 285.24C240.048 284.317 239.731 283.085 238.181 282.312C236.477 281.461 235.713 281.469 234.037 282.352ZM237.406 283.561C238.027 284.034 238.056 284.267 237.578 284.922C237.041 285.655 236.948 285.634 236.283 284.617C235.276 283.081 235.947 282.451 237.406 283.561ZM191.357 285.582L192.462 286.835L191.095 285.696C190.343 285.069 189.643 284.506 189.538 284.443C189.434 284.38 189.552 284.329 189.801 284.329C190.049 284.329 190.75 284.893 191.357 285.582ZM209.092 287.19C210.971 288.211 213.124 289.499 213.876 290.053C214.628 290.606 215.691 291.194 216.239 291.36C216.786 291.527 218.875 293.396 220.88 295.514C222.885 297.633 224.736 299.366 224.992 299.366C225.249 299.366 225.876 299.814 226.387 300.362L227.315 301.359L226.326 302.412L225.337 303.465L224.293 301.714C223.449 300.299 222.359 299.511 218.624 297.613C216.08 296.322 213.712 295.265 213.362 295.265C212.257 295.265 210.785 294.219 207.432 291.05C205.642 289.359 203.79 287.974 203.317 287.974C202.633 287.974 197.246 284.996 197.246 284.618C197.246 284.565 199.142 284.704 201.46 284.927C205.114 285.279 206.129 285.58 209.092 287.19ZM227.354 284.785C228.52 284.785 228.683 284.949 228.683 286.118C228.683 287.127 228.369 287.608 227.395 288.095C226.171 288.706 226.082 288.679 225.622 287.558C224.688 285.285 224.589 284.234 225.337 284.521C225.715 284.666 226.623 284.785 227.354 284.785ZM239.922 287.367C239.183 288.106 239.68 289.339 240.834 289.629C241.781 289.867 242.239 289.7 242.904 288.88C243.576 288.05 243.633 287.745 243.169 287.451C242.457 286.999 240.345 286.944 239.922 287.367ZM196.79 288.791C196.79 289.24 197.713 290.513 198.84 291.62C199.968 292.726 200.891 293.897 200.891 294.221C200.891 294.844 202.516 295.048 202.865 294.468C202.979 294.279 202.729 293.203 202.311 292.075C201.735 290.521 201.112 289.785 199.74 289.036C197.485 287.805 196.79 287.747 196.79 288.791ZM200.207 290.708C200.661 291.21 200.93 291.62 200.804 291.62C200.679 291.62 200.205 291.21 199.752 290.708C199.298 290.207 199.03 289.797 199.155 289.797C199.28 289.797 199.754 290.207 200.207 290.708ZM209.733 303.639C209.601 303.985 209.672 304.958 209.891 305.804C210.206 307.019 210.521 307.34 211.399 307.34C212.323 307.34 212.533 307.087 212.654 305.83C212.734 304.998 212.555 304.025 212.257 303.665C211.566 302.834 210.049 302.818 209.733 303.639ZM211.216 305.859C211.09 306.173 210.986 305.916 210.986 305.29C210.986 304.663 211.09 304.407 211.216 304.72C211.343 305.034 211.343 305.546 211.216 305.859ZM210.003 328.073C210.003 328.68 209.699 328.984 209.092 328.984C208.034 328.984 207.961 328.74 208.75 327.843C209.554 326.93 210.003 327.012 210.003 328.073ZM193.477 336.308C191.668 337.8 191.265 339.334 192.576 339.74C193.014 339.876 193.771 340.203 194.257 340.467C194.992 340.867 195.359 340.705 196.422 339.516C197.907 337.853 198.038 336.721 196.868 335.662C195.735 334.636 195.435 334.694 193.477 336.308ZM196.335 337.385C196.335 338.341 195.096 339.111 194.078 338.788C192.803 338.383 192.908 337.795 194.396 337.015C195.74 336.312 196.335 336.425 196.335 337.385Z"/>
</mask>
<path fill-rule="evenodd" clip-rule="evenodd" d="M12.2649 53.7317V107.47L11.0119 107.614C9.90797 107.741 9.74168 107.975 9.61137 109.581C9.53027 110.583 9.12295 111.781 8.70606 112.242C7.9994 113.024 8.00029 113.119 8.71607 113.642C9.43139 114.165 9.42638 114.253 8.64135 114.925C8.17798 115.321 7.41984 115.614 6.95647 115.575C6.35415 115.525 6.07304 115.861 5.97007 116.758C5.89079 117.447 6.04843 118.011 6.32043 118.011C6.62023 118.011 6.70224 118.459 6.52911 119.15C6.29173 120.095 6.40656 120.289 7.20389 120.289C8.45456 120.289 8.44908 121.504 7.19613 121.902C6.31542 122.181 6.2539 122.432 6.51679 124.667L6.80522 127.124H5.20689C3.92523 127.124 3.60814 127.3 3.60814 128.013C3.60814 128.502 3.9389 129.087 4.34304 129.313C4.8998 129.624 4.60822 129.787 3.14159 129.984C2.07635 130.127 0.873973 130.585 0.469839 131.003C-0.207209 131.703 -0.185327 131.816 0.750513 132.454C1.55969 133.005 1.67176 133.32 1.30407 134.008C1.03708 134.506 1.02023 134.87 1.26353 134.87C1.97566 134.87 1.60388 136.446 0.814751 136.772C0.30537 136.983 0.0634422 137.667 0.045673 138.949C0.0219809 140.662 0.179616 140.918 1.92782 142.007C2.97757 142.66 3.92207 143.271 4.02777 143.363C4.13302 143.456 3.7357 144.047 3.14476 144.675C2.24902 145.629 2.14287 146.027 2.50691 147.066C2.8386 148.011 3.31746 148.368 4.48931 148.54C5.87302 148.745 5.95549 148.833 5.27708 149.393C3.56805 150.805 5.18732 153.981 7.27769 153.317C7.98071 153.094 8.18118 153.157 7.95064 153.53C7.45811 154.327 8.05313 156.147 8.91471 156.477C9.37124 156.653 10.0642 156.401 10.6565 155.844C11.1974 155.336 12.1906 154.92 12.8636 154.92H14.0874V246.68V338.442L18.6823 342.852C21.2091 345.278 23.8052 347.464 24.4513 347.709C25.902 348.261 29.1934 347.83 31.6665 346.764C32.6898 346.323 34.8535 344.837 36.4741 343.462C39.5869 340.821 40.6276 340.433 45.5701 340.071C49.1235 339.811 52.1597 340.956 54.4095 343.406C55.6907 344.801 56.0188 344.912 59.6492 345.176C67.3824 345.74 70.5074 345.48 74.7843 343.919C75.5548 343.638 77.6224 343.606 80.2518 343.836C85.7087 344.312 90.7815 344.124 93.3649 343.35C96.5724 342.388 99.2237 342.132 100.257 342.685C100.971 343.067 101.723 343.015 103.403 342.465C104.616 342.068 106.042 341.743 106.571 341.743C107.1 341.743 108.366 341.341 109.384 340.848C111.142 339.999 111.289 339.994 112.31 340.734C112.9 341.164 113.39 341.669 113.398 341.857C113.406 342.045 113.657 342.199 113.957 342.199C114.257 342.199 115.299 342.751 116.273 343.426C117.415 344.217 119.042 344.795 120.854 345.054C122.399 345.274 124.704 345.6 125.976 345.778C128.481 346.129 132.029 348.104 135.054 350.831C137.76 353.271 139.671 354.496 141.083 354.697C141.777 354.796 142.988 355.136 143.774 355.453C145.74 356.246 147.435 355.545 157.71 349.689C165.717 345.125 172.251 340.862 175.856 337.849C177.99 336.066 179.234 335.609 183.805 334.928C186.869 334.472 187.655 334.171 188.737 333.04C191.306 330.355 191.967 330.14 198.44 329.896C204.025 329.684 204.55 329.588 205.637 328.565C206.283 327.958 206.948 327.599 207.116 327.767C207.284 327.935 207.182 328.073 206.89 328.073C206.597 328.073 206.358 328.483 206.358 328.984C206.358 329.673 206.664 329.897 207.611 329.902C208.3 329.905 209.298 330.025 209.829 330.167C210.591 330.371 210.839 330.188 211.01 329.296C211.353 327.5 210.885 325.339 210.152 325.339C209.763 325.339 209.63 325.119 209.825 324.803C210.441 323.806 210.408 320.958 209.729 316.645C209.358 314.284 208.886 310.951 208.68 309.239C208.321 306.24 208.209 306.023 205.594 303.316C202.872 300.496 200.435 297.43 200.435 296.824C200.435 296.646 200.033 296.068 199.542 295.541C196.271 292.03 195.576 291.159 195.826 290.878C195.981 290.704 195.853 290.708 195.544 290.886C195.212 291.077 194.425 290.64 193.623 289.82C192.876 289.055 191.988 288.43 191.651 288.43C191.314 288.43 190.448 287.815 189.728 287.063C189.008 286.311 188.637 285.696 188.903 285.696C189.17 285.696 189.648 286.009 189.966 286.392C190.839 287.444 194.468 289.797 195.218 289.797C196.317 289.797 195.985 289.061 193.584 286.175C191.803 284.035 191.013 283.419 190.053 283.424C188.312 283.434 187.581 284.003 187.979 285.037C188.217 285.66 187.745 285.451 186.285 284.286C183.767 282.276 181.343 281.524 174.595 280.659C171.124 280.213 171.602 280.454 161.372 274.004C157.68 271.676 156.532 271.176 154.644 271.07C153.392 271 151.732 270.684 150.955 270.368C149.692 269.853 149.061 269.956 144.965 271.347C142.448 272.201 139.598 273.44 138.632 274.1C137.138 275.12 136.503 275.271 134.371 275.116C132.692 274.994 131.251 274.543 130.007 273.751C128.242 272.628 128.063 272.298 126.453 267.171C125.52 264.203 124.588 261.466 124.382 261.09C124.08 260.54 122.973 260.413 118.702 260.442C113.747 260.477 113.314 260.552 112.151 261.591C109.566 263.9 107.984 264.735 106.193 264.735C104.252 264.735 100.49 263.419 102.336 263.386C102.885 263.376 103.461 263.573 103.616 263.824C103.97 264.397 105.98 264.423 106.328 263.859C106.471 263.628 107.252 263.298 108.064 263.126C108.875 262.954 110.577 262.02 111.846 261.051C114.087 259.338 114.28 259.282 118.639 259.058C122.576 258.856 123.307 258.94 124.599 259.738C126.323 260.803 127.305 262.708 127.754 265.858C127.932 267.101 128.378 268.873 128.747 269.794C129.325 271.24 129.795 271.607 132.173 272.474C133.689 273.027 135.367 273.386 135.903 273.271C137.802 272.863 138.228 272.704 138.785 272.19C139.095 271.903 140.879 271.032 142.751 270.253C145.354 269.169 146.83 268.839 149.032 268.845C154.011 268.861 157.398 269.579 160.887 271.357C163.834 272.859 164.438 273.01 166.541 272.762C168.111 272.578 169.537 272.713 170.826 273.167C173.288 274.036 174.836 274.028 176.972 273.135C180.682 271.585 200.666 267.014 203.734 267.014C204.805 267.014 206.397 266.798 207.273 266.534C208.148 266.27 213.665 265.899 219.534 265.709L230.204 265.363L231.924 263.425C232.907 262.317 233.536 261.204 233.391 260.828C233.041 259.914 230.994 259.483 229.988 260.112C228.464 261.064 228.432 260.643 229.936 259.457C231.186 258.472 231.417 257.992 231.414 256.387C231.412 254.722 231.225 254.374 229.934 253.618L228.456 252.754L229.936 252.353C230.751 252.132 231.417 251.84 231.417 251.706C231.417 251.328 228.997 248.173 228.228 247.548C227.852 247.243 226.827 246.954 225.95 246.906L224.355 246.818L225.915 246.629C227.038 246.492 228.454 246.899 230.975 248.082C234.314 249.649 234.707 249.726 239.507 249.752C245.077 249.782 246.453 249.362 246.453 247.632C246.453 246.698 246.674 246.509 247.764 246.509C249.412 246.509 250.286 245.5 249.916 244.024C249.76 243.403 247.995 241.173 245.993 239.069C241.446 234.288 240.473 233.056 240.886 232.599C241.066 232.4 240.976 232.373 240.685 232.539C240.369 232.72 236.995 229.415 232.27 224.296C227.932 219.597 223.128 214.418 221.594 212.789C220.061 211.16 217.373 208.29 215.621 206.41C213.87 204.53 207.776 198.02 202.08 191.943C195.789 185.23 191.852 180.686 192.049 180.367C192.261 180.024 192.173 179.965 191.798 180.197C191.48 180.393 191.09 180.348 190.93 180.097C190.77 179.845 188.487 177.333 185.855 174.512C183.224 171.693 180.149 168.36 179.021 167.107L176.971 164.829L176.743 157.938L176.515 151.047L163.302 150.696C156.035 150.502 149.013 150.231 147.697 150.093L145.305 149.842V111.867V73.8922L143.99 72.8264C143.266 72.2404 141.187 70.8379 139.37 69.7101C137.554 68.5823 135.838 67.4546 135.557 67.204C135.277 66.9533 133.847 65.9381 132.379 64.9484C130.911 63.9582 129.189 62.3178 128.551 61.3031C126.127 57.4445 124.219 55.3457 121.482 53.5262C119.925 52.4919 116.499 50.1452 113.868 48.3116C108.431 44.5232 105.421 42.8099 102.5 41.842L100.472 41.1699L100.602 38.7048C100.759 35.7634 100.965 35.3324 103.361 32.9356C104.379 31.9181 105.211 30.8969 105.211 30.6664C105.211 30.4353 98.5986 28.0522 90.5173 25.3697C39.6288 8.4795 13.7579 0.00547858 13.0622 1.05877e-05C12.3073 -0.00636874 12.2649 2.8534 12.2649 53.7317ZM35.9853 8.66086C48.1234 12.6757 68.1009 19.266 80.3798 23.3051C92.6587 27.3441 102.878 30.747 103.09 30.8668C103.301 30.9867 102.654 31.9326 101.653 32.9684C99.9149 34.7646 99.8164 35.0239 99.5139 38.5908L99.1968 42.33L100.495 42.6157C103.198 43.2104 106.428 44.843 111.095 47.9735C113.747 49.7528 115.986 51.3727 116.07 51.5737C116.154 51.7746 116.415 51.9391 116.65 51.9391C116.886 51.9391 118.591 52.9803 120.44 54.2535C123.155 56.1221 124.291 57.3014 126.339 60.3803C128.804 64.0835 129.089 64.3346 136.229 69.0927C140.273 71.787 143.66 74.2075 143.756 74.4709C143.852 74.7348 143.984 92.0719 144.049 112.998L144.166 151.047L150.773 151.379C154.406 151.562 161.429 151.84 166.378 151.998L175.376 152.285L175.41 157.134C175.46 164.398 175.71 165.354 178.286 168.19C180.322 170.431 187.555 178.239 190.705 181.596C191.421 182.359 194.569 185.735 197.701 189.098C200.834 192.461 204.745 196.656 206.393 198.419C208.041 200.182 212.637 205.111 216.608 209.372C220.578 213.632 225.178 218.554 226.829 220.308C228.481 222.062 232.388 226.266 235.511 229.649C238.635 233.032 242.887 237.588 244.96 239.772C249.013 244.041 249.525 245.142 247.455 245.142C245.915 245.142 245.086 245.882 245.086 247.255C245.086 248.115 244.763 248.324 243.037 248.583C238.859 249.209 235.08 248.644 231.339 246.834L227.843 245.142H220.959C214.801 245.142 214.049 245.057 213.827 244.344C213.69 243.906 213.147 242.395 212.62 240.987C211.73 238.611 211.513 238.381 209.579 237.769C207.164 237.004 203.624 237.193 203.624 238.086C203.624 239.184 206.344 241.041 207.951 241.041C209.274 241.041 209.515 241.221 209.775 242.408C209.94 243.159 210.239 243.775 210.438 243.775C210.637 243.775 210.922 244.383 211.071 245.127C211.378 246.661 214.085 248.635 216.509 249.091C218.413 249.45 219.571 250.482 219.571 251.819C219.571 252.407 219.776 252.888 220.027 252.888C220.8 252.888 220.529 254.179 219.722 254.336C219.305 254.417 218.93 254.933 218.89 255.482C218.849 256.032 218.935 256.443 219.079 256.396C219.577 256.236 222.716 258.403 224.34 260.027C225.923 261.61 226.038 261.646 228.912 261.463C231.772 261.281 231.843 261.303 231.259 262.183C229.916 264.205 227.44 264.659 217.44 264.716C212.521 264.745 208.293 264.894 208.043 265.048C207.794 265.202 205.749 265.498 203.499 265.706C199.447 266.08 179.763 270.602 176.801 271.84C174.908 272.631 172.455 272.666 171.132 271.922C170.58 271.612 168.511 271.357 166.492 271.352C163.645 271.345 162.876 271.205 162.979 270.717C163.059 270.34 162.856 270.19 162.469 270.338C162.116 270.474 161.145 270.17 160.312 269.663C158.321 268.453 154.245 267.741 149.178 267.721C145.162 267.705 144.977 267.753 140.215 270.048L135.353 272.392L132.827 271.411C129.921 270.283 129.634 269.807 128.735 264.62C128.241 261.768 127.874 260.858 126.83 259.89C124.413 257.65 121.455 256.914 119.129 257.974C118.249 258.374 117.688 258.375 116.811 257.975C115.388 257.326 112.982 258.201 110.906 260.123C109.489 261.435 106.308 262.626 105.521 262.139C105.268 261.983 105.213 262.092 105.396 262.386C105.852 263.125 105.397 263.054 101.956 261.849L98.9294 260.789L99.1221 261.964C99.2278 262.611 99.3426 263.385 99.3772 263.685C99.4114 263.984 99.5595 264.209 99.7057 264.184C99.8515 264.159 100.706 264.466 101.603 264.867C102.501 265.268 104.297 265.736 105.594 265.908C108.07 266.236 109.186 265.742 113.105 262.584C114.249 261.662 114.892 261.546 118.852 261.546H123.311L124.079 264.166C124.502 265.607 125.248 267.815 125.737 269.073C126.225 270.331 126.625 271.705 126.625 272.125C126.625 273.08 129.253 275.123 131.522 275.932C134.38 276.953 136.677 276.74 139.047 275.237C142.258 273.201 149.284 270.965 150.744 271.515C151.386 271.757 153.037 272.087 154.412 272.248C156.394 272.481 157.67 273.044 160.563 274.962C169.599 280.952 171.901 282.013 175.919 282.04C176.844 282.046 177.709 282.226 177.841 282.44C177.973 282.654 179.358 282.962 180.918 283.126C182.478 283.289 183.868 283.592 184.007 283.799C184.497 284.529 190.2 289.172 191.664 290.033C192.479 290.513 193.145 291.06 193.145 291.251C193.145 291.441 193.738 291.903 194.462 292.277C195.826 292.982 200.669 298.811 201.006 300.153C201.147 300.715 202.312 302.026 204.826 304.453C207.045 306.595 207.18 306.86 207.414 309.533C207.55 311.083 207.863 313.275 208.11 314.403C208.357 315.531 208.705 318.135 208.883 320.191L209.206 323.928L207.825 325.203C204.323 328.436 204.079 328.529 198.996 328.531C193.038 328.534 191.26 329.039 188.643 331.47C186.721 333.256 186.267 333.453 183.398 333.754C179.249 334.189 177.004 335.027 174.738 336.988C171.19 340.06 166.738 343.118 162.217 345.586C159.722 346.949 156.862 348.582 155.86 349.214C154.859 349.846 152.289 351.294 150.149 352.432C146.356 354.45 144.282 354.97 143.711 354.046C143.556 353.795 142.914 353.59 142.284 353.59C140.899 353.59 137.69 351.773 136.165 350.125C133.912 347.691 129.134 345.004 126.502 344.692C119.716 343.887 118.916 343.708 117.353 342.644C116.442 342.023 115.695 341.349 115.693 341.146C115.692 340.944 115.494 340.899 115.255 341.047C114.729 341.372 112.44 339.476 112.751 338.973C113.172 338.291 111.075 338.01 110.304 338.646C108.377 340.234 102.023 341.894 100.332 341.251C99.1189 340.79 95.0174 341.294 92.6874 342.19C90.4038 343.069 84.0616 343.306 80.5534 342.644C77.7071 342.107 77.0141 342.129 74.3096 342.841C71.2 343.66 66.3426 344.514 65.1166 344.458C56.6826 344.07 56.5172 344.036 55.2593 342.386C54.1539 340.937 53.4687 340.509 49.9459 339.073C48.4095 338.447 43.6975 338.388 42.2432 338.977C41.6677 339.211 40.6499 339.518 39.9819 339.66C39.314 339.802 37.6738 340.858 36.337 342.007C32.3121 345.466 30.4317 346.375 27.1417 346.456L24.2472 346.527L19.8537 342.199L15.4601 337.87L15.3435 245.846L15.2264 153.822L12.7205 153.955C11.3423 154.028 9.94169 154.313 9.60817 154.59C9.11474 154.999 9.05868 154.789 9.30745 153.463C9.66147 151.576 9.09743 150.987 7.66907 151.751C6.31953 152.474 5.44839 151.624 6.23934 150.358C7.41712 148.472 6.91183 147.405 4.9308 147.594C4.53077 147.631 3.9567 147.365 3.65508 147.002C3.21176 146.468 3.33888 146.126 4.31709 145.219C5.87758 143.772 5.54179 142.647 3.14751 141.302C1.12639 140.166 0.620185 138.347 2.18706 137.85C3.12472 137.552 3.90292 134.879 3.18213 134.433C2.91833 134.27 2.90695 133.9 3.15344 133.502C3.42498 133.063 3.31654 132.569 2.83086 132.033C2.14925 131.279 2.17886 131.225 3.27235 131.225C5.12489 131.225 5.88623 130.755 5.88623 129.612C5.88623 128.794 6.17281 128.519 7.13918 128.407C7.90051 128.32 8.34156 128.022 8.26365 127.649C8.19257 127.311 8.0117 126.138 7.86134 125.041C7.6103 123.21 7.68274 123.01 8.74296 122.607C10.1276 122.081 10.6433 121.379 9.95717 120.954C9.68244 120.784 9.57674 120.169 9.723 119.587C9.92256 118.791 9.76263 118.457 9.07647 118.239C7.89186 117.863 7.91237 117.272 9.12158 116.955C9.64782 116.818 9.94896 116.495 9.7904 116.239C9.63185 115.982 10.0214 115.432 10.6556 115.017C11.8917 114.207 12.1683 113.195 11.2397 112.883C10.7891 112.731 10.7937 112.541 11.2621 111.974C11.6594 111.492 11.6967 111.16 11.376 110.962C10.37 110.34 10.8675 108.962 12.151 108.814L13.4039 108.67L13.5197 55.0149C13.5835 25.5046 13.6987 1.36017 13.7757 1.36017C13.8527 1.36017 23.8472 4.64553 35.9853 8.66086ZM209.264 238.996C210.172 239.376 210.914 239.736 210.914 239.797C210.914 240.189 206.419 239.448 205.687 238.935C204.84 238.343 204.87 238.307 206.201 238.307C206.978 238.307 208.357 238.617 209.264 238.996ZM212.225 243.547C212.904 245.446 212.992 246.011 212.514 245.396C212.135 244.91 211.826 244.153 211.826 243.714C211.826 243.276 211.621 242.79 211.37 242.635C211.119 242.481 210.914 241.922 210.914 241.393C210.914 240.086 211.089 240.373 212.225 243.547ZM218.567 246.457L220.98 246.509L220.162 247.612C219.656 248.293 219.178 248.555 218.91 248.295C218.672 248.065 217.996 247.876 217.407 247.876C216.407 247.876 213.648 246.716 213.648 246.296C213.648 246.192 214.212 246.175 214.901 246.256C215.59 246.338 217.24 246.428 218.567 246.457ZM225.681 248.133C227.262 248.38 229.081 249.748 229.124 250.724C229.132 250.912 228.268 251.068 227.203 251.07C226.137 251.073 224.531 251.197 223.632 251.346C222.119 251.596 221.954 251.507 221.388 250.14C220.838 248.812 220.862 248.602 221.631 248.04C222.101 247.697 222.803 247.514 223.192 247.635C223.581 247.755 224.701 247.98 225.681 248.133ZM224.241 252.964C222.539 253.345 222.305 253.549 222.305 254.646C222.305 255.333 222.561 256.165 222.874 256.494C223.216 256.854 222.827 256.781 221.897 256.311C220.964 255.84 220.552 255.405 220.86 255.215C221.141 255.041 221.463 254.395 221.576 253.78C221.689 253.164 221.797 252.609 221.815 252.546C221.834 252.483 222.823 252.454 224.013 252.481L226.178 252.53L224.241 252.964ZM229.039 254.494C230.264 255.232 230.486 255.599 230.272 256.533C230.129 257.16 229.592 258.027 229.08 258.461C228.26 259.156 228.004 259.174 226.935 258.618C225.436 257.838 223.672 255.847 223.672 254.935C223.672 254.486 224.127 254.255 225.012 254.255C225.749 254.255 226.485 254.039 226.648 253.775C226.977 253.242 226.947 253.233 229.039 254.494ZM204.84 270.507C204.227 271.12 204.573 271.812 205.769 272.368C207.007 272.943 215.523 273.188 216.047 272.664C216.198 272.514 216.097 271.898 215.823 271.297C215.34 270.237 215.165 270.203 210.234 270.203C207.434 270.203 205.006 270.34 204.84 270.507ZM202.146 270.996C201.512 271.143 201.445 271.36 201.82 272.059C202.336 273.025 203.396 273.219 203.879 272.438C204.302 271.753 203.121 270.77 202.146 270.996ZM214.521 271.3C214.126 271.686 207.753 271.894 207.988 271.513C208.124 271.294 209.691 271.115 211.473 271.115C213.254 271.115 214.626 271.198 214.521 271.3ZM195.423 271.992C195.047 272.216 193.1 272.455 191.095 272.524C186.107 272.695 185.204 273.458 188.213 274.959C189.201 275.452 190.949 275.671 193.897 275.671H198.154L198.78 274.19C199.124 273.376 199.278 272.577 199.123 272.416C198.597 271.869 196.111 271.584 195.423 271.992ZM219.175 273.093C218.896 273.429 218.802 273.839 218.967 274.004C219.132 274.169 217.183 274.304 214.635 274.304C211.851 274.304 210.003 274.486 210.003 274.76C210.003 275.381 206.529 275.336 204.751 274.693C202.685 273.946 201.052 274.473 200.764 275.979C200.479 277.47 200.788 278.405 201.567 278.405C201.885 278.405 202.401 278.713 202.713 279.089C203.025 279.465 203.743 279.772 204.308 279.772C204.873 279.772 205.59 280.08 205.903 280.456C206.218 280.836 207.212 281.139 208.143 281.139C209.331 281.139 210.784 281.735 213.143 283.19C214.972 284.318 216.622 285.24 216.81 285.24C216.998 285.24 217.531 285.659 217.995 286.172C218.673 286.921 219.292 287.078 221.141 286.97C222.761 286.875 223.407 286.656 223.319 286.232C223.25 285.9 223.404 285.758 223.66 285.917C223.917 286.076 224.127 286.491 224.127 286.841C224.127 288.282 225.204 289.797 226.229 289.797C228.388 289.797 229.491 288.889 229.795 286.861C230.224 283.995 229.842 283.418 227.512 283.418C225.965 283.418 225.414 283.208 225.018 282.467C224.738 281.944 224.622 281.404 224.76 281.265C224.899 281.127 224.556 280.379 224 279.602C222.66 277.732 221.831 276.127 222.205 276.127C222.37 276.127 223.668 277.277 225.088 278.682C227.593 281.162 227.724 281.227 229.543 280.92C231.117 280.654 231.417 280.432 231.417 279.531C231.417 278.942 231.209 278.33 230.954 278.173C230.7 278.015 230.607 277.7 230.747 277.472C231.121 276.868 230.186 275.327 228.532 273.822C227.194 272.604 226.82 272.508 223.386 272.495C220.83 272.486 219.526 272.671 219.175 273.093ZM197.589 273.507C197.459 273.901 196.144 274.092 193.336 274.128C189.498 274.178 189.441 274.165 192.311 273.901C193.982 273.747 195.503 273.467 195.69 273.279C196.259 272.708 197.792 272.892 197.589 273.507ZM228.079 275.33C228.847 276.144 229.6 277.477 229.752 278.291C230.198 280.691 228.463 280.273 225.494 277.266C224.133 275.888 222.768 274.76 222.461 274.76C222.154 274.76 221.776 274.555 221.621 274.304C221.446 274.02 222.346 273.849 224.011 273.849C226.435 273.849 226.812 273.986 228.079 275.33ZM204.764 276.127C204.918 276.378 206.365 276.583 207.98 276.583C209.632 276.583 210.914 276.383 210.914 276.127C210.914 275.853 212.776 275.671 215.587 275.671H220.26L220.891 277.152C221.239 277.967 221.876 279.043 222.307 279.544C223.03 280.386 224.127 283.036 224.127 283.941C224.127 284.154 223.813 284.329 223.43 284.329C223.046 284.329 222.614 284.637 222.47 285.012C222.162 285.815 219.331 285.957 218.859 285.194C218.688 284.918 217.907 284.399 217.124 284.042C216.34 283.685 214.468 282.592 212.965 281.614C211.207 280.471 209.662 279.82 208.636 279.79C207.759 279.764 206.643 279.442 206.157 279.074C205.671 278.706 204.953 278.401 204.563 278.395C203.489 278.38 201.625 276.782 201.991 276.189C202.387 275.55 204.379 275.505 204.764 276.127ZM179.932 276.553C179.932 276.82 179.33 277.038 178.595 277.038C177.86 277.038 176.783 277.219 176.203 277.439C175.623 277.66 175.026 277.814 174.877 277.781C174.369 277.67 173.098 278.97 173.098 279.6C173.098 280.343 176.524 280.495 176.971 279.772C177.126 279.522 178.483 279.317 179.988 279.317H182.724L182.581 277.836C182.462 276.602 182.229 276.331 181.185 276.211C180.496 276.132 179.932 276.285 179.932 276.553ZM196.221 279.214C195.782 279.307 195.424 279.522 195.424 279.692C195.424 279.861 194.297 279.93 192.918 279.844C190.152 279.672 189.711 280.22 191.209 281.97C192.311 283.258 202.115 289.341 203.088 289.341C203.524 289.341 205.105 290.587 206.6 292.109C209.624 295.185 210.06 295.476 213.66 296.827C218.522 298.651 222.601 301.203 223.658 303.084C224.199 304.047 224.897 304.834 225.209 304.834C225.941 304.834 228.683 302.161 228.683 301.447C228.683 300.773 226.312 298.455 225.621 298.455C224.895 298.455 222.265 295.008 222.659 294.572C222.84 294.371 222.765 294.335 222.491 294.491C222.217 294.647 221.297 294.054 220.444 293.175C219.592 292.296 217.458 290.703 215.702 289.637C213.946 288.569 211.381 287.005 210.003 286.159C207.571 284.668 205.477 284.122 200.093 283.576C198.456 283.41 197.701 283.131 197.701 282.692C197.701 282.339 197.997 282.051 198.358 282.051C199.412 282.051 199.656 281.181 198.919 280.056C198.244 279.026 197.781 278.881 196.221 279.214ZM195.846 282.34C197.351 284.253 196.958 284.424 194.512 282.919C193.259 282.148 192.234 281.432 192.234 281.328C192.234 281.224 192.834 281.139 193.568 281.139C194.466 281.139 195.21 281.531 195.846 282.34ZM234.037 282.352C232.516 283.153 232.444 283.765 233.809 284.292C234.373 284.51 235.331 285.222 235.939 285.875C237.139 287.165 238.251 287.435 238.251 286.435C238.251 286.09 238.559 285.552 238.935 285.24C240.048 284.317 239.731 283.085 238.181 282.312C236.477 281.461 235.713 281.469 234.037 282.352ZM237.406 283.561C238.027 284.034 238.056 284.267 237.578 284.922C237.041 285.655 236.948 285.634 236.283 284.617C235.276 283.081 235.947 282.451 237.406 283.561ZM191.357 285.582L192.462 286.835L191.095 285.696C190.343 285.069 189.643 284.506 189.538 284.443C189.434 284.38 189.552 284.329 189.801 284.329C190.049 284.329 190.75 284.893 191.357 285.582ZM209.092 287.19C210.971 288.211 213.124 289.499 213.876 290.053C214.628 290.606 215.691 291.194 216.239 291.36C216.786 291.527 218.875 293.396 220.88 295.514C222.885 297.633 224.736 299.366 224.992 299.366C225.249 299.366 225.876 299.814 226.387 300.362L227.315 301.359L226.326 302.412L225.337 303.465L224.293 301.714C223.449 300.299 222.359 299.511 218.624 297.613C216.08 296.322 213.712 295.265 213.362 295.265C212.257 295.265 210.785 294.219 207.432 291.05C205.642 289.359 203.79 287.974 203.317 287.974C202.633 287.974 197.246 284.996 197.246 284.618C197.246 284.565 199.142 284.704 201.46 284.927C205.114 285.279 206.129 285.58 209.092 287.19ZM227.354 284.785C228.52 284.785 228.683 284.949 228.683 286.118C228.683 287.127 228.369 287.608 227.395 288.095C226.171 288.706 226.082 288.679 225.622 287.558C224.688 285.285 224.589 284.234 225.337 284.521C225.715 284.666 226.623 284.785 227.354 284.785ZM239.922 287.367C239.183 288.106 239.68 289.339 240.834 289.629C241.781 289.867 242.239 289.7 242.904 288.88C243.576 288.05 243.633 287.745 243.169 287.451C242.457 286.999 240.345 286.944 239.922 287.367ZM196.79 288.791C196.79 289.24 197.713 290.513 198.84 291.62C199.968 292.726 200.891 293.897 200.891 294.221C200.891 294.844 202.516 295.048 202.865 294.468C202.979 294.279 202.729 293.203 202.311 292.075C201.735 290.521 201.112 289.785 199.74 289.036C197.485 287.805 196.79 287.747 196.79 288.791ZM200.207 290.708C200.661 291.21 200.93 291.62 200.804 291.62C200.679 291.62 200.205 291.21 199.752 290.708C199.298 290.207 199.03 289.797 199.155 289.797C199.28 289.797 199.754 290.207 200.207 290.708ZM209.733 303.639C209.601 303.985 209.672 304.958 209.891 305.804C210.206 307.019 210.521 307.34 211.399 307.34C212.323 307.34 212.533 307.087 212.654 305.83C212.734 304.998 212.555 304.025 212.257 303.665C211.566 302.834 210.049 302.818 209.733 303.639ZM211.216 305.859C211.09 306.173 210.986 305.916 210.986 305.29C210.986 304.663 211.09 304.407 211.216 304.72C211.343 305.034 211.343 305.546 211.216 305.859ZM210.003 328.073C210.003 328.68 209.699 328.984 209.092 328.984C208.034 328.984 207.961 328.74 208.75 327.843C209.554 326.93 210.003 327.012 210.003 328.073ZM193.477 336.308C191.668 337.8 191.265 339.334 192.576 339.74C193.014 339.876 193.771 340.203 194.257 340.467C194.992 340.867 195.359 340.705 196.422 339.516C197.907 337.853 198.038 336.721 196.868 335.662C195.735 334.636 195.435 334.694 193.477 336.308ZM196.335 337.385C196.335 338.341 195.096 339.111 194.078 338.788C192.803 338.383 192.908 337.795 194.396 337.015C195.74 336.312 196.335 336.425 196.335 337.385Z" stroke="white" stroke-width="2" mask="url(#path-1-inside-1_21_45)"/>
</svg>
